<svg width="64" height="64" viewBox="0 0 64 64" fill="none" xmlns="http://www.w3.org/2000/svg">
<rect width="64" height="64" rx="16" fill="url(#paint0_linear_10667_2454)"/>
<g clip-path="url(#clip0_10667_2454)" filter="url(#filter0_dd_10667_2454)">
<path d="M34.943 47.6079L49.609 32.9419C50.1303 32.4206 50.1303 31.578 49.609 31.0567L34.943 16.3907C34.6937 16.14 34.3551 16 34.0004 16L19.3344 16C18.7957 16 18.3077 16.324 18.1024 16.8226C17.8945 17.3213 18.0091 17.8946 18.3917 18.2759L32.1151 31.9992L18.3917 45.7226C18.1371 45.9773 18.0011 46.3186 18.0011 46.6652C18.0011 46.8372 18.0331 47.0105 18.1024 47.1759C18.3077 47.6746 18.7957 47.9986 19.3343 47.9986H34.0005C34.3551 47.9986 34.6937 47.8586 34.943 47.6079Z" fill="url(#paint1_linear_10667_2454)"/>
</g>
<defs>
<filter id="filter0_dd_10667_2454" x="15" y="14" width="38" height="38" filterUnits="userSpaceOnUse" color-interpolation-filters="sRGB">
<feFlood flood-opacity="0" result="BackgroundImageFix"/>
<feColorMatrix in="SourceAlpha" type="matrix" values="0 0 0 0 0 0 0 0 0 0 0 0 0 0 0 0 0 0 127 0" result="hardAlpha"/>
<feOffset dy="1"/>
<feGaussianBlur stdDeviation="1"/>
<feColorMatrix type="matrix" values="0 0 0 0 0.0784314 0 0 0 0 0.0823529 0 0 0 0 0.101961 0 0 0 0.06 0"/>
<feBlend mode="normal" in2="BackgroundImageFix" result="effect1_dropShadow_10667_2454"/>
<feColorMatrix in="SourceAlpha" type="matrix" values="0 0 0 0 0 0 0 0 0 0 0 0 0 0 0 0 0 0 127 0" result="hardAlpha"/>
<feOffset dy="1"/>
<feGaussianBlur stdDeviation="1.5"/>
<feColorMatrix type="matrix" values="0 0 0 0 0.0784314 0 0 0 0 0.0823529 0 0 0 0 0.101961 0 0 0 0.1 0"/>
<feBlend mode="normal" in2="effect1_dropShadow_10667_2454" result="effect2_dropShadow_10667_2454"/>
<feBlend mode="normal" in="SourceGraphic" in2="effect2_dropShadow_10667_2454" result="shape"/>
</filter>
<linearGradient id="paint0_linear_10667_2454" x1="32" y1="0" x2="32" y2="64" gradientUnits="userSpaceOnUse">
<stop stop-color="#0091FF"/>
<stop offset="0.922226" stop-color="#007DDD"/>
<stop offset="0.992098" stop-color="#2FA4FF"/>
</linearGradient>
<linearGradient id="paint1_linear_10667_2454" x1="34" y1="16" x2="34" y2="47.9986" gradientUnits="userSpaceOnUse">
<stop stop-color="white"/>
<stop offset="1" stop-color="#CAE8FF"/>
</linearGradient>
<clipPath id="clip0_10667_2454">
<rect width="32" height="32" fill="white" transform="matrix(0 1 -1 0 50 16)"/>
</clipPath>
</defs>
</svg>
