<svg width="90" height="32" viewBox="0 0 90 32" fill="none" xmlns="http://www.w3.org/2000/svg">
<rect x="0.5" y="2.5" width="27" height="27" rx="6.5" stroke="#7A7A7A"/>
<g clip-path="url(#clip0_1_39241)" filter="url(#filter0_dd_1_39241)">
<path d="M20.8285 15.5874L14.4121 9.17105C14.184 8.94298 13.8154 8.94298 13.5873 9.17105L7.17092 15.5874C7.06125 15.6965 7 15.8447 7 15.9998V22.4162C7 22.6519 7.14174 22.8654 7.35991 22.9552C7.57807 23.0462 7.82889 22.996 7.9957 22.8286L13.9997 16.8246L20.0036 22.8286C20.1151 22.94 20.2644 22.9995 20.416 22.9995C20.4913 22.9995 20.5671 22.9855 20.6395 22.9552C20.8576 22.8654 20.9994 22.6519 20.9994 22.4162V15.9998C20.9994 15.8447 20.9381 15.6965 20.8285 15.5874Z" fill="#7A7A7A"/>
</g>
<path d="M44.483 10.3636H46.5909V17.9659C46.5909 18.7992 46.3939 19.5322 46 20.1648C45.6098 20.7973 45.0606 21.2917 44.3523 21.6477C43.6439 22 42.8163 22.1761 41.8693 22.1761C40.9186 22.1761 40.089 22 39.3807 21.6477C38.6723 21.2917 38.1231 20.7973 37.733 20.1648C37.3428 19.5322 37.1477 18.7992 37.1477 17.9659V10.3636H39.2557V17.7898C39.2557 18.2746 39.3617 18.7064 39.5739 19.0852C39.7898 19.464 40.0928 19.7614 40.483 19.9773C40.8731 20.1894 41.3352 20.2955 41.8693 20.2955C42.4034 20.2955 42.8655 20.1894 43.2557 19.9773C43.6496 19.7614 43.9527 19.464 44.1648 19.0852C44.3769 18.7064 44.483 18.2746 44.483 17.7898V10.3636ZM48.6312 25.2727V13.2727H50.6539V14.7159H50.7732C50.8793 14.5038 51.0289 14.2784 51.2221 14.0398C51.4153 13.7973 51.6766 13.5909 52.0062 13.4205C52.3357 13.2462 52.7562 13.1591 53.2676 13.1591C53.9418 13.1591 54.5498 13.3314 55.0914 13.6761C55.6369 14.017 56.0687 14.5227 56.3869 15.1932C56.7088 15.8598 56.8698 16.678 56.8698 17.6477C56.8698 18.6061 56.7126 19.4205 56.3982 20.0909C56.0838 20.7614 55.6558 21.2727 55.1141 21.625C54.5725 21.9773 53.9588 22.1534 53.2732 22.1534C52.7732 22.1534 52.3585 22.0701 52.0289 21.9034C51.6994 21.7367 51.4342 21.536 51.2335 21.3011C51.0365 21.0625 50.8831 20.8371 50.7732 20.625H50.688V25.2727H48.6312ZM50.6482 17.6364C50.6482 18.2008 50.7278 18.6951 50.8869 19.1193C51.0498 19.5436 51.2827 19.875 51.5857 20.1136C51.8926 20.3485 52.2638 20.4659 52.6994 20.4659C53.1539 20.4659 53.5346 20.3447 53.8414 20.1023C54.1482 19.8561 54.3793 19.5208 54.5346 19.0966C54.6937 18.6686 54.7732 18.1818 54.7732 17.6364C54.7732 17.0947 54.6956 16.6136 54.5403 16.1932C54.385 15.7727 54.1539 15.4432 53.8471 15.2045C53.5403 14.9659 53.1577 14.8466 52.6994 14.8466C52.26 14.8466 51.8869 14.9621 51.5801 15.1932C51.2732 15.4242 51.0403 15.7481 50.8812 16.1648C50.7259 16.5814 50.6482 17.072 50.6482 17.6364ZM61.7098 22.1534C61.0242 22.1534 60.4106 21.9773 59.8689 21.625C59.3273 21.2727 58.8992 20.7614 58.5848 20.0909C58.2704 19.4205 58.1132 18.6061 58.1132 17.6477C58.1132 16.678 58.2723 15.8598 58.5905 15.1932C58.9125 14.5227 59.3462 14.017 59.8916 13.6761C60.4371 13.3314 61.0451 13.1591 61.7155 13.1591C62.2269 13.1591 62.6473 13.2462 62.9769 13.4205C63.3064 13.5909 63.5678 13.7973 63.761 14.0398C63.9541 14.2784 64.1038 14.5038 64.2098 14.7159H64.2951V10.3636H66.3576V22H64.3348V20.625H64.2098C64.1038 20.8371 63.9504 21.0625 63.7496 21.3011C63.5488 21.536 63.2837 21.7367 62.9541 21.9034C62.6246 22.0701 62.2098 22.1534 61.7098 22.1534ZM62.2837 20.4659C62.7193 20.4659 63.0905 20.3485 63.3973 20.1136C63.7041 19.875 63.9371 19.5436 64.0962 19.1193C64.2553 18.6951 64.3348 18.2008 64.3348 17.6364C64.3348 17.072 64.2553 16.5814 64.0962 16.1648C63.9409 15.7481 63.7098 15.4242 63.403 15.1932C63.1 14.9621 62.7269 14.8466 62.2837 14.8466C61.8254 14.8466 61.4428 14.9659 61.136 15.2045C60.8291 15.4432 60.5981 15.7727 60.4428 16.1932C60.2875 16.6136 60.2098 17.0947 60.2098 17.6364C60.2098 18.1818 60.2875 18.6686 60.4428 19.0966C60.6019 19.5208 60.8348 19.8561 61.1416 20.1023C61.4523 20.3447 61.8329 20.4659 62.2837 20.4659ZM68.3893 22V13.2727H70.4461V22H68.3893ZM69.4234 12.0341C69.0977 12.0341 68.8173 11.9261 68.5825 11.7102C68.3477 11.4905 68.2302 11.2273 68.2302 10.9205C68.2302 10.6098 68.3477 10.3466 68.5825 10.1307C68.8173 9.91098 69.0977 9.80114 69.4234 9.80114C69.753 9.80114 70.0333 9.91098 70.2643 10.1307C70.4992 10.3466 70.6166 10.6098 70.6166 10.9205C70.6166 11.2273 70.4992 11.4905 70.2643 11.7102C70.0333 11.9261 69.753 12.0341 69.4234 12.0341ZM80.1966 13.2727L77.0887 22H74.816L71.708 13.2727H73.9012L75.9069 19.7557H75.9978L78.0091 13.2727H80.1966ZM85.0267 22.1705C84.1517 22.1705 83.396 21.9886 82.7597 21.625C82.1271 21.2576 81.6403 20.7386 81.2994 20.0682C80.9585 19.3939 80.7881 18.6004 80.7881 17.6875C80.7881 16.7898 80.9585 16.0019 81.2994 15.3239C81.6441 14.642 82.1252 14.1117 82.7426 13.733C83.36 13.3504 84.0854 13.1591 84.9188 13.1591C85.4566 13.1591 85.9642 13.2462 86.4415 13.4205C86.9225 13.5909 87.3468 13.8561 87.7142 14.2159C88.0854 14.5758 88.3771 15.0341 88.5892 15.5909C88.8013 16.1439 88.9074 16.803 88.9074 17.5682V18.1989H81.754V16.8125H86.9358C86.932 16.4186 86.8468 16.0682 86.6801 15.7614C86.5134 15.4508 86.2805 15.2064 85.9813 15.0284C85.6858 14.8504 85.3411 14.7614 84.9472 14.7614C84.5267 14.7614 84.1574 14.8636 83.8392 15.0682C83.521 15.2689 83.2729 15.5341 83.0949 15.8636C82.9206 16.1894 82.8316 16.5473 82.8278 16.9375V18.1477C82.8278 18.6553 82.9206 19.0909 83.1063 19.4545C83.2919 19.8144 83.5513 20.0909 83.8847 20.2841C84.218 20.4735 84.6081 20.5682 85.0551 20.5682C85.3544 20.5682 85.6252 20.5265 85.8676 20.4432C86.11 20.3561 86.3203 20.2292 86.4983 20.0625C86.6763 19.8958 86.8108 19.6894 86.9017 19.4432L88.8222 19.6591C88.7009 20.1667 88.4699 20.6098 88.129 20.9886C87.7919 21.3636 87.36 21.6553 86.8335 21.8636C86.307 22.0682 85.7047 22.1705 85.0267 22.1705Z" fill="#A6A6A6"/>
<defs>
<filter id="filter0_dd_1_39241" x="5.6875" y="8.125" width="16.625" height="16.625" filterUnits="userSpaceOnUse" color-interpolation-filters="sRGB">
<feFlood flood-opacity="0" result="BackgroundImageFix"/>
<feColorMatrix in="SourceAlpha" type="matrix" values="0 0 0 0 0 0 0 0 0 0 0 0 0 0 0 0 0 0 127 0" result="hardAlpha"/>
<feOffset dy="0.4375"/>
<feGaussianBlur stdDeviation="0.4375"/>
<feColorMatrix type="matrix" values="0 0 0 0 0.0784314 0 0 0 0 0.0823529 0 0 0 0 0.101961 0 0 0 0.06 0"/>
<feBlend mode="normal" in2="BackgroundImageFix" result="effect1_dropShadow_1_39241"/>
<feColorMatrix in="SourceAlpha" type="matrix" values="0 0 0 0 0 0 0 0 0 0 0 0 0 0 0 0 0 0 127 0" result="hardAlpha"/>
<feOffset dy="0.4375"/>
<feGaussianBlur stdDeviation="0.65625"/>
<feColorMatrix type="matrix" values="0 0 0 0 0.0784314 0 0 0 0 0.0823529 0 0 0 0 0.101961 0 0 0 0.1 0"/>
<feBlend mode="normal" in2="effect1_dropShadow_1_39241" result="effect2_dropShadow_1_39241"/>
<feBlend mode="normal" in="SourceGraphic" in2="effect2_dropShadow_1_39241" result="shape"/>
</filter>
<clipPath id="clip0_1_39241">
<rect width="14" height="14" fill="white" transform="translate(7 9)"/>
</clipPath>
</defs>
</svg>
