<svg width="90" height="33" viewBox="0 0 90 33" fill="none" xmlns="http://www.w3.org/2000/svg">
<rect x="0.5" y="3.23633" width="27" height="27" rx="6.5" stroke="#7A7A7A"/>
<g clip-path="url(#clip0_12521_27958)" filter="url(#filter0_dd_12521_27958)">
<path d="M20.8285 16.3238L14.4121 9.90738C14.184 9.67931 13.8154 9.67931 13.5873 9.90738L7.17092 16.3238C7.06125 16.4328 7 16.581 7 16.7362V23.1525C7 23.3882 7.14174 23.6017 7.35991 23.6915C7.57807 23.7825 7.82889 23.7323 7.9957 23.5649L13.9997 17.561L20.0036 23.5649C20.1151 23.6764 20.2644 23.7359 20.416 23.7359C20.4913 23.7359 20.5671 23.7219 20.6395 23.6915C20.8576 23.6017 20.9994 23.3882 20.9994 23.1526V16.7361C20.9994 16.581 20.9381 16.4328 20.8285 16.3238Z" fill="#7A7A7A"/>
</g>
<path d="M44.483 11.1H46.5909V18.7022C46.5909 19.5356 46.3939 20.2685 46 20.9011C45.6098 21.5337 45.0606 22.028 44.3523 22.3841C43.6439 22.7363 42.8163 22.9125 41.8693 22.9125C40.9186 22.9125 40.089 22.7363 39.3807 22.3841C38.6723 22.028 38.1231 21.5337 37.733 20.9011C37.3428 20.2685 37.1477 19.5356 37.1477 18.7022V11.1H39.2557V18.5261C39.2557 19.0109 39.3617 19.4428 39.5739 19.8216C39.7898 20.2003 40.0928 20.4977 40.483 20.7136C40.8731 20.9257 41.3352 21.0318 41.8693 21.0318C42.4034 21.0318 42.8655 20.9257 43.2557 20.7136C43.6496 20.4977 43.9527 20.2003 44.1648 19.8216C44.3769 19.4428 44.483 19.0109 44.483 18.5261V11.1ZM48.6312 26.0091V14.0091H50.6539V15.4522H50.7732C50.8793 15.2401 51.0289 15.0147 51.2221 14.7761C51.4153 14.5337 51.6766 14.3272 52.0062 14.1568C52.3357 13.9825 52.7562 13.8954 53.2676 13.8954C53.9418 13.8954 54.5498 14.0678 55.0914 14.4125C55.6369 14.7534 56.0687 15.2591 56.3869 15.9295C56.7088 16.5962 56.8698 17.4144 56.8698 18.3841C56.8698 19.3424 56.7126 20.1568 56.3982 20.8272C56.0838 21.4977 55.6558 22.0091 55.1141 22.3613C54.5725 22.7136 53.9588 22.8897 53.2732 22.8897C52.7732 22.8897 52.3585 22.8064 52.0289 22.6397C51.6994 22.4731 51.4342 22.2723 51.2335 22.0375C51.0365 21.7988 50.8831 21.5734 50.7732 21.3613H50.688V26.0091H48.6312ZM50.6482 18.3727C50.6482 18.9371 50.7278 19.4314 50.8869 19.8556C51.0498 20.2799 51.2827 20.6113 51.5857 20.85C51.8926 21.0848 52.2638 21.2022 52.6994 21.2022C53.1539 21.2022 53.5346 21.081 53.8414 20.8386C54.1482 20.5924 54.3793 20.2572 54.5346 19.8329C54.6937 19.4049 54.7732 18.9181 54.7732 18.3727C54.7732 17.831 54.6956 17.35 54.5403 16.9295C54.385 16.5091 54.1539 16.1795 53.8471 15.9409C53.5403 15.7022 53.1577 15.5829 52.6994 15.5829C52.26 15.5829 51.8869 15.6984 51.5801 15.9295C51.2732 16.1606 51.0403 16.4844 50.8812 16.9011C50.7259 17.3178 50.6482 17.8083 50.6482 18.3727ZM61.7098 22.8897C61.0242 22.8897 60.4106 22.7136 59.8689 22.3613C59.3273 22.0091 58.8992 21.4977 58.5848 20.8272C58.2704 20.1568 58.1132 19.3424 58.1132 18.3841C58.1132 17.4144 58.2723 16.5962 58.5905 15.9295C58.9125 15.2591 59.3462 14.7534 59.8916 14.4125C60.4371 14.0678 61.0451 13.8954 61.7155 13.8954C62.2269 13.8954 62.6473 13.9825 62.9769 14.1568C63.3064 14.3272 63.5678 14.5337 63.761 14.7761C63.9541 15.0147 64.1038 15.2401 64.2098 15.4522H64.2951V11.1H66.3576V22.7363H64.3348V21.3613H64.2098C64.1038 21.5734 63.9504 21.7988 63.7496 22.0375C63.5488 22.2723 63.2837 22.4731 62.9541 22.6397C62.6246 22.8064 62.2098 22.8897 61.7098 22.8897ZM62.2837 21.2022C62.7193 21.2022 63.0905 21.0848 63.3973 20.85C63.7041 20.6113 63.9371 20.2799 64.0962 19.8556C64.2553 19.4314 64.3348 18.9371 64.3348 18.3727C64.3348 17.8083 64.2553 17.3178 64.0962 16.9011C63.9409 16.4844 63.7098 16.1606 63.403 15.9295C63.1 15.6984 62.7269 15.5829 62.2837 15.5829C61.8254 15.5829 61.4428 15.7022 61.136 15.9409C60.8291 16.1795 60.5981 16.5091 60.4428 16.9295C60.2875 17.35 60.2098 17.831 60.2098 18.3727C60.2098 18.9181 60.2875 19.4049 60.4428 19.8329C60.6019 20.2572 60.8348 20.5924 61.1416 20.8386C61.4523 21.081 61.8329 21.2022 62.2837 21.2022ZM68.3893 22.7363V14.0091H70.4461V22.7363H68.3893ZM69.4234 12.7704C69.0977 12.7704 68.8173 12.6625 68.5825 12.4466C68.3477 12.2269 68.2302 11.9636 68.2302 11.6568C68.2302 11.3462 68.3477 11.0829 68.5825 10.867C68.8173 10.6473 69.0977 10.5375 69.4234 10.5375C69.753 10.5375 70.0333 10.6473 70.2643 10.867C70.4992 11.0829 70.6166 11.3462 70.6166 11.6568C70.6166 11.9636 70.4992 12.2269 70.2643 12.4466C70.0333 12.6625 69.753 12.7704 69.4234 12.7704ZM80.1966 14.0091L77.0887 22.7363H74.816L71.708 14.0091H73.9012L75.9069 20.492H75.9978L78.0091 14.0091H80.1966ZM85.0267 22.9068C84.1517 22.9068 83.396 22.725 82.7597 22.3613C82.1271 21.9939 81.6403 21.475 81.2994 20.8045C80.9585 20.1303 80.7881 19.3367 80.7881 18.4238C80.7881 17.5261 80.9585 16.7382 81.2994 16.0602C81.6441 15.3784 82.1252 14.8481 82.7426 14.4693C83.36 14.0867 84.0854 13.8954 84.9188 13.8954C85.4566 13.8954 85.9642 13.9825 86.4415 14.1568C86.9225 14.3272 87.3468 14.5924 87.7142 14.9522C88.0854 15.3121 88.3771 15.7704 88.5892 16.3272C88.8013 16.8803 88.9074 17.5394 88.9074 18.3045V18.9352H81.754V17.5488H86.9358C86.932 17.1549 86.8468 16.8045 86.6801 16.4977C86.5134 16.1871 86.2805 15.9428 85.9813 15.7647C85.6858 15.5867 85.3411 15.4977 84.9472 15.4977C84.5267 15.4977 84.1574 15.6 83.8392 15.8045C83.521 16.0053 83.2729 16.2704 83.0949 16.6C82.9206 16.9257 82.8316 17.2837 82.8278 17.6738V18.8841C82.8278 19.3916 82.9206 19.8272 83.1063 20.1909C83.2919 20.5507 83.5513 20.8272 83.8847 21.0204C84.218 21.2098 84.6081 21.3045 85.0551 21.3045C85.3544 21.3045 85.6252 21.2628 85.8676 21.1795C86.11 21.0924 86.3203 20.9655 86.4983 20.7988C86.6763 20.6322 86.8108 20.4257 86.9017 20.1795L88.8222 20.3954C88.7009 20.903 88.4699 21.3462 88.129 21.725C87.7919 22.1 87.36 22.3916 86.8335 22.6C86.307 22.8045 85.7047 22.9068 85.0267 22.9068Z" fill="#A6A6A6"/>
<defs>
<filter id="filter0_dd_12521_27958" x="5.6875" y="8.86133" width="16.625" height="16.625" filterUnits="userSpaceOnUse" color-interpolation-filters="sRGB">
<feFlood flood-opacity="0" result="BackgroundImageFix"/>
<feColorMatrix in="SourceAlpha" type="matrix" values="0 0 0 0 0 0 0 0 0 0 0 0 0 0 0 0 0 0 127 0" result="hardAlpha"/>
<feOffset dy="0.4375"/>
<feGaussianBlur stdDeviation="0.4375"/>
<feColorMatrix type="matrix" values="0 0 0 0 0.0784314 0 0 0 0 0.0823529 0 0 0 0 0.101961 0 0 0 0.06 0"/>
<feBlend mode="normal" in2="BackgroundImageFix" result="effect1_dropShadow_12521_27958"/>
<feColorMatrix in="SourceAlpha" type="matrix" values="0 0 0 0 0 0 0 0 0 0 0 0 0 0 0 0 0 0 127 0" result="hardAlpha"/>
<feOffset dy="0.4375"/>
<feGaussianBlur stdDeviation="0.65625"/>
<feColorMatrix type="matrix" values="0 0 0 0 0.0784314 0 0 0 0 0.0823529 0 0 0 0 0.101961 0 0 0 0.1 0"/>
<feBlend mode="normal" in2="effect1_dropShadow_12521_27958" result="effect2_dropShadow_12521_27958"/>
<feBlend mode="normal" in="SourceGraphic" in2="effect2_dropShadow_12521_27958" result="shape"/>
</filter>
<clipPath id="clip0_12521_27958">
<rect width="14" height="14" fill="white" transform="translate(7 9.73633)"/>
</clipPath>
</defs>
</svg>
