<svg width="714" height="428" viewBox="0 0 714 428" fill="none" xmlns="http://www.w3.org/2000/svg">
<path d="M168.954 100.017C168.954 100.017 209.697 89.7843 222.378 115.052C234.376 138.96 206.787 163.915 227.99 192.523C249.193 221.132 318 211.317 318 211.317" stroke="#EF9292" stroke-width="2.25771"/>
<path d="M313.714 217.131C313.714 217.131 278.942 216.169 260.26 236.354C236.756 261.748 248.196 293.299 211.381 318.471C174.566 343.643 111.335 331.845 111.335 331.845" stroke="#FBD8BB" stroke-width="2.25771"/>
<path d="M317.524 203.492C317.524 203.492 277.604 199.52 246.624 230.457C219.525 257.519 218.139 280.626 186.743 284.179C155.348 287.733 145.239 253.298 123.328 244.045C107.526 232.966 78.002 236.938 78.002 236.938" stroke="#BBA0F9" stroke-width="2.25771"/>
<path d="M100.383 164.77C100.383 164.77 133.726 160.738 153.183 167.696C180.618 177.506 181.422 206.169 207.646 218.895C245.954 237.485 316.572 218.895 316.572 218.895" stroke="#8BECC5" stroke-width="2.25771"/>
<path d="M382.145 213.411H432.768C444.376 213.411 453.786 204.001 453.786 192.393V92.1384C453.786 80.5306 463.196 71.1206 474.804 71.1206L551 71.1206" stroke="#2A87E3" stroke-width="2.26995"/>
<path d="M382.145 213.411H432.768C444.376 213.411 453.786 222.821 453.786 234.429V334.684C453.786 346.292 463.196 355.702 474.804 355.702H552.5" stroke="#2A87E3" stroke-width="2.26995"/>
<path d="M382.145 213.411H504.857C511.822 213.411 517.468 207.765 517.468 200.8V176.209C517.468 169.245 523.114 163.599 530.078 163.599H611" stroke="#2A87E3" stroke-width="2.26995"/>
<path d="M382.145 213.621H504.857C511.822 213.621 517.468 219.267 517.468 226.232V250.823C517.468 257.788 523.114 263.434 530.078 263.434H611" stroke="#2A87E3" stroke-width="2.26995"/>
<g opacity="0.5" filter="url(#filter0_f_1_13412)">
<g opacity="0.7" filter="url(#filter1_i_1_13412)">
<circle cx="357.037" cy="214.169" r="113.866" fill="#C4C4C4" fill-opacity="0.01"/>
</g>
<circle cx="357.037" cy="214.169" r="113.229" stroke="url(#paint0_linear_1_13412)" stroke-opacity="0.2" stroke-width="1.27483"/>
<g filter="url(#filter2_f_1_13412)">
<circle cx="357.037" cy="214.169" r="110.041" stroke="url(#paint1_linear_1_13412)" stroke-opacity="0.6" stroke-width="7.64895"/>
</g>
<g opacity="0.3" filter="url(#filter3_i_1_13412)">
<circle cx="357.037" cy="214.169" r="113.866" fill="url(#paint2_radial_1_13412)"/>
</g>
<circle cx="357.037" cy="214.169" r="113.229" stroke="url(#paint3_linear_1_13412)" stroke-opacity="0.1" stroke-width="1.27483"/>
<g opacity="0.7" filter="url(#filter4_f_1_13412)">
<ellipse cx="318.277" cy="164.022" rx="15.6366" ry="26.1675" transform="rotate(45 318.277 164.022)" fill="#9BCDFF"/>
</g>
<g opacity="0.35" filter="url(#filter5_f_1_13412)">
<ellipse cx="415.208" cy="280.88" rx="15.1102" ry="30.9247" transform="rotate(45 415.208 280.88)" fill="#9BE1FF"/>
</g>
<g filter="url(#filter6_f_1_13412)">
<path d="M328.57 105.36C291.75 114.967 262.28 142.768 250.341 178.585H250.288V174.456C263.166 139.852 292.388 113.202 328.57 103.89V105.36Z" fill="#B9D4DF"/>
</g>
<g filter="url(#filter7_f_1_13412)">
<ellipse cx="281.721" cy="130.278" rx="17.0799" ry="4.26997" transform="rotate(-40.3806 281.721 130.278)" fill="#CAE5FF"/>
</g>
<g opacity="0.7" filter="url(#filter8_f_1_13412)">
<ellipse cx="281.721" cy="130.277" rx="38.503" ry="9.62576" transform="rotate(-40.3806 281.721 130.277)" fill="#CAE5FF"/>
</g>
<g filter="url(#filter9_f_1_13412)">
<ellipse cx="431.17" cy="299.653" rx="17.0799" ry="4.26997" transform="rotate(-40.3806 431.17 299.653)" fill="#8FB9F4" fill-opacity="0.6"/>
</g>
<g filter="url(#filter10_f_1_13412)">
<ellipse cx="281.721" cy="130.277" rx="13.4098" ry="6.47402" transform="rotate(-40.3806 281.721 130.277)" fill="white"/>
</g>
</g>
<g clip-path="url(#clip0_1_13412)">
<rect x="305.578" y="161.768" width="102.513" height="102.513" rx="22.9544" fill="url(#paint4_linear_1_13412)"/>
<mask id="mask0_1_13412" style="mask-type:alpha" maskUnits="userSpaceOnUse" x="305" y="161" width="93" height="93">
<rect x="305.307" y="161.768" width="92.0883" height="91.8174" fill="url(#paint5_radial_1_13412)"/>
</mask>
<g mask="url(#mask0_1_13412)">
<line x1="320.699" y1="123.157" x2="320.699" y2="292.197" stroke="white" stroke-width="0.498643"/>
<line x1="338.65" y1="123.157" x2="338.65" y2="292.197" stroke="white" stroke-width="0.498643"/>
<line x1="356.601" y1="123.157" x2="356.601" y2="292.197" stroke="white" stroke-width="0.498643"/>
<line x1="374.552" y1="123.157" x2="374.552" y2="292.197" stroke="white" stroke-width="0.498643"/>
<line x1="392.503" y1="123.157" x2="392.503" y2="292.197" stroke="white" stroke-width="0.498643"/>
<line x1="440.872" y1="172.023" x2="271.832" y2="172.023" stroke="white" stroke-width="0.498643"/>
<line x1="440.872" y1="189.974" x2="271.832" y2="189.974" stroke="white" stroke-width="0.498643"/>
<line x1="440.872" y1="207.926" x2="271.832" y2="207.926" stroke="white" stroke-width="0.498643"/>
<line x1="440.872" y1="225.877" x2="271.832" y2="225.877" stroke="white" stroke-width="0.498643"/>
<line x1="440.872" y1="243.828" x2="271.832" y2="243.828" stroke="white" stroke-width="0.498643"/>
</g>
<g clip-path="url(#clip1_1_13412)" filter="url(#filter11_dd_1_13412)">
<path d="M381.835 211.514L358.343 188.022C357.508 187.187 356.159 187.187 355.324 188.022L331.832 211.514C331.431 211.913 331.207 212.455 331.207 213.024V236.515C331.207 237.378 331.725 238.159 332.524 238.488C333.323 238.821 334.241 238.638 334.852 238.025L356.834 216.043L378.815 238.025C379.223 238.433 379.77 238.651 380.325 238.651C380.6 238.651 380.878 238.599 381.143 238.488C381.942 238.16 382.461 237.378 382.461 236.515V213.023C382.461 212.455 382.236 211.913 381.835 211.514Z" fill="url(#paint6_linear_1_13412)"/>
</g>
<path d="M331.736 212.812L331.736 233.126" stroke="url(#paint7_linear_1_13412)" stroke-width="0.270848" stroke-linecap="round"/>
<g filter="url(#filter12_f_1_13412)">
<path d="M333.303 211.922C333.303 212.713 332.542 214.425 331.751 214.425C330.961 214.425 330.877 212.713 330.877 211.922C330.877 211.131 331.835 210.053 332.626 210.053C333.417 210.053 333.303 211.131 333.303 211.922Z" fill="white"/>
</g>
</g>
<g filter="url(#filter13_di_1_13412)">
<path d="M42.0464 306.1C42.0464 297.137 49.3125 289.871 58.2756 289.871H101.554C110.517 289.871 117.783 297.137 117.783 306.1V349.378C117.783 358.341 110.517 365.607 101.554 365.607H58.2756C49.3125 365.607 42.0464 358.341 42.0464 349.378V306.1Z" fill="white" shape-rendering="crispEdges"/>
<path d="M42.0464 306.1C42.0464 297.137 49.3125 289.871 58.2756 289.871H101.554C110.517 289.871 117.783 297.137 117.783 306.1V349.378C117.783 358.341 110.517 365.607 101.554 365.607H58.2756C49.3125 365.607 42.0464 358.341 42.0464 349.378V306.1Z" fill="url(#paint8_linear_1_13412)" fill-opacity="0.2" shape-rendering="crispEdges"/>
<path d="M42.3845 306.1C42.3845 297.323 49.4992 290.209 58.2756 290.209H101.554C110.33 290.209 117.445 297.323 117.445 306.1V349.378C117.445 358.154 110.33 365.269 101.554 365.269H58.2756C49.4992 365.269 42.3845 358.154 42.3845 349.378V306.1Z" stroke="#1380ED" stroke-opacity="0.15" stroke-width="0.676219" shape-rendering="crispEdges"/>
<path d="M81.2674 335.853V338.558H86.6772V341.263H73.1528V338.558H78.5626V335.853H67.732C66.9912 335.853 66.3906 335.246 66.3906 334.491V316.929C66.3906 316.177 67.0064 315.567 67.732 315.567H92.098C92.8389 315.567 93.4394 316.174 93.4394 316.929V334.491C93.4394 335.243 92.8236 335.853 92.098 335.853H81.2674Z" fill="#FFA053"/>
<path d="M81.2674 335.853V338.558H86.6772V341.263H73.1528V338.558H78.5626V335.853H67.732C66.9912 335.853 66.3906 335.246 66.3906 334.491V316.929C66.3906 316.177 67.0064 315.567 67.732 315.567H92.098C92.8389 315.567 93.4394 316.174 93.4394 316.929V334.491C93.4394 335.243 92.8236 335.853 92.098 335.853H81.2674Z" fill="url(#paint9_linear_1_13412)" fill-opacity="0.4"/>
</g>
<g filter="url(#filter14_di_1_13412)">
<path d="M25.7407 142.271C25.7407 133.308 33.0068 126.042 41.97 126.042H85.248C94.2112 126.042 101.477 133.308 101.477 142.271V185.549C101.477 194.512 94.2112 201.779 85.248 201.779H41.97C33.0068 201.779 25.7407 194.512 25.7407 185.549V142.271Z" fill="white" shape-rendering="crispEdges"/>
<path d="M25.7407 142.271C25.7407 133.308 33.0068 126.042 41.97 126.042H85.248C94.2112 126.042 101.477 133.308 101.477 142.271V185.549C101.477 194.512 94.2112 201.779 85.248 201.779H41.97C33.0068 201.779 25.7407 194.512 25.7407 185.549V142.271Z" fill="url(#paint10_linear_1_13412)" fill-opacity="0.2" shape-rendering="crispEdges"/>
<path d="M26.0788 142.271C26.0788 133.495 33.1935 126.38 41.97 126.38H85.248C94.0245 126.38 101.139 133.495 101.139 142.271V185.549C101.139 194.326 94.0244 201.44 85.248 201.44H41.97C33.1935 201.44 26.0788 194.326 26.0788 185.549V142.271Z" stroke="#1380ED" stroke-opacity="0.15" stroke-width="0.676219" shape-rendering="crispEdges"/>
<g clip-path="url(#clip2_1_13412)">
<path d="M62.2569 150.453V165.263H77.0669C76.3884 172.097 70.6221 177.435 63.6093 177.435C56.14 177.435 50.085 171.38 50.085 163.911C50.085 156.898 55.4226 151.132 62.2569 150.453ZM64.9618 148.416C72.4725 149.062 78.4575 155.047 79.1044 162.558H64.9618V148.416Z" fill="#37B482"/>
<path d="M62.2569 150.453V165.263H77.0669C76.3884 172.097 70.6221 177.435 63.6093 177.435C56.14 177.435 50.085 171.38 50.085 163.911C50.085 156.898 55.4226 151.132 62.2569 150.453ZM64.9618 148.416C72.4725 149.062 78.4575 155.047 79.1044 162.558H64.9618V148.416Z" fill="url(#paint11_linear_1_13412)" fill-opacity="0.4"/>
</g>
</g>
<g filter="url(#filter15_di_1_13412)">
<path d="M4 211.612C4 202.648 11.2661 195.382 20.2293 195.382H63.5073C72.4705 195.382 79.7365 202.648 79.7365 211.612V254.89C79.7365 263.853 72.4705 271.119 63.5073 271.119H20.2293C11.2661 271.119 4 263.853 4 254.89V211.612Z" fill="white" shape-rendering="crispEdges"/>
<path d="M4 211.612C4 202.648 11.2661 195.382 20.2293 195.382H63.5073C72.4705 195.382 79.7365 202.648 79.7365 211.612V254.89C79.7365 263.853 72.4705 271.119 63.5073 271.119H20.2293C11.2661 271.119 4 263.853 4 254.89V211.612Z" fill="url(#paint12_linear_1_13412)" fill-opacity="0.2" shape-rendering="crispEdges"/>
<path d="M4.33811 211.612C4.33811 202.835 11.4528 195.72 20.2293 195.72H63.5073C72.2837 195.72 79.3984 202.835 79.3984 211.612V254.89C79.3984 263.666 72.2837 270.781 63.5073 270.781H20.2293C11.4528 270.781 4.33811 263.666 4.33811 254.89V211.612Z" stroke="#1380ED" stroke-opacity="0.15" stroke-width="0.676219" shape-rendering="crispEdges"/>
<path d="M31.0487 233.251H52.6877C53.4347 233.251 54.0402 233.856 54.0402 234.603V245.423C54.0402 246.17 53.4347 246.775 52.6877 246.775H31.0487C30.3018 246.775 29.6963 246.17 29.6963 245.423V234.603C29.6963 233.856 30.3018 233.251 31.0487 233.251ZM32.4012 219.727H51.3353V230.546H32.4012V219.727ZM37.8109 223.784V226.489H40.5158V223.784H37.8109ZM43.2207 223.784V226.489H45.9255V223.784H43.2207Z" fill="#8653FF"/>
<path d="M31.0487 233.251H52.6877C53.4347 233.251 54.0402 233.856 54.0402 234.603V245.423C54.0402 246.17 53.4347 246.775 52.6877 246.775H31.0487C30.3018 246.775 29.6963 246.17 29.6963 245.423V234.603C29.6963 233.856 30.3018 233.251 31.0487 233.251ZM32.4012 219.727H51.3353V230.546H32.4012V219.727ZM37.8109 223.784V226.489H40.5158V223.784H37.8109ZM43.2207 223.784V226.489H45.9255V223.784H43.2207Z" fill="url(#paint13_linear_1_13412)" fill-opacity="0.4"/>
</g>
<g filter="url(#filter16_di_1_13412)">
<path d="M98.0703 76.1506C98.0703 67.1875 105.336 59.9214 114.3 59.9214H157.578C166.541 59.9214 173.807 67.1875 173.807 76.1506V119.429C173.807 128.392 166.541 135.658 157.578 135.658H114.3C105.336 135.658 98.0703 128.392 98.0703 119.429V76.1506Z" fill="white" shape-rendering="crispEdges"/>
<path d="M98.0703 76.1506C98.0703 67.1875 105.336 59.9214 114.3 59.9214H157.578C166.541 59.9214 173.807 67.1875 173.807 76.1506V119.429C173.807 128.392 166.541 135.658 157.578 135.658H114.3C105.336 135.658 98.0703 128.392 98.0703 119.429V76.1506Z" fill="url(#paint14_linear_1_13412)" fill-opacity="0.2" shape-rendering="crispEdges"/>
<path d="M98.4084 76.1506C98.4084 67.3742 105.523 60.2595 114.3 60.2595H157.578C166.354 60.2595 173.469 67.3742 173.469 76.1506V119.429C173.469 128.205 166.354 135.32 157.578 135.32H114.3C105.523 135.32 98.4084 128.205 98.4084 119.429V76.1506Z" stroke="#1380ED" stroke-opacity="0.15" stroke-width="0.676219" shape-rendering="crispEdges"/>
<path d="M125.119 85.6177H146.758C147.505 85.6177 148.11 86.2232 148.11 86.9701V96.4372H123.767V86.9701C123.767 86.2232 124.372 85.6177 125.119 85.6177ZM123.767 99.1421H148.11V108.609C148.11 109.356 147.505 109.962 146.758 109.962H125.119C124.372 109.962 123.767 109.356 123.767 108.609V99.1421ZM129.176 103.199V105.904H133.234V103.199H129.176ZM129.176 89.675V92.3799H133.234V89.675H129.176Z" fill="#FF5353"/>
<path d="M125.119 85.6177H146.758C147.505 85.6177 148.11 86.2232 148.11 86.9701V96.4372H123.767V86.9701C123.767 86.2232 124.372 85.6177 125.119 85.6177ZM123.767 99.1421H148.11V108.609C148.11 109.356 147.505 109.962 146.758 109.962H125.119C124.372 109.962 123.767 109.356 123.767 108.609V99.1421ZM129.176 103.199V105.904H133.234V103.199H129.176ZM129.176 89.675V92.3799H133.234V89.675H129.176Z" fill="url(#paint15_linear_1_13412)" fill-opacity="0.4"/>
</g>
<g filter="url(#filter17_di_1_13412)">
<path d="M545.321 334.88C545.321 325.868 552.627 318.562 561.639 318.562H605.151C614.163 318.562 621.468 325.868 621.468 334.88V378.392C621.468 387.404 614.163 394.71 605.151 394.71H561.639C552.627 394.71 545.321 387.404 545.321 378.392V334.88Z" fill="white" shape-rendering="crispEdges"/>
<path d="M545.321 334.88C545.321 325.868 552.627 318.562 561.639 318.562H605.151C614.163 318.562 621.468 325.868 621.468 334.88V378.392C621.468 387.404 614.163 394.71 605.151 394.71H561.639C552.627 394.71 545.321 387.404 545.321 378.392V334.88Z" fill="url(#paint16_linear_1_13412)" fill-opacity="0.2" shape-rendering="crispEdges"/>
<path d="M545.661 334.88C545.661 326.056 552.815 318.902 561.639 318.902H605.151C613.975 318.902 621.128 326.056 621.128 334.88V378.392C621.128 387.216 613.975 394.37 605.151 394.37H561.639C552.815 394.37 545.661 387.216 545.661 378.392V334.88Z" stroke="#1380ED" stroke-opacity="0.15" stroke-width="0.679884" shape-rendering="crispEdges"/>
<path d="M584.754 364.794V367.514H590.193V370.234H576.596V367.514H582.035V364.794H571.145C570.401 364.794 569.797 364.184 569.797 363.425V345.768C569.797 345.011 570.416 344.398 571.145 344.398H595.644C596.389 344.398 596.992 345.008 596.992 345.768V363.425C596.992 364.181 596.373 364.794 595.644 364.794H584.754Z" fill="#006FDD"/>
<path d="M584.754 364.794V367.514H590.193V370.234H576.596V367.514H582.035V364.794H571.145C570.401 364.794 569.797 364.184 569.797 363.425V345.768C569.797 345.011 570.416 344.398 571.145 344.398H595.644C596.389 344.398 596.992 345.008 596.992 345.768V363.425C596.992 364.181 596.373 364.794 595.644 364.794H584.754Z" fill="url(#paint17_linear_1_13412)" fill-opacity="0.4"/>
</g>
<g filter="url(#filter18_di_1_13412)">
<path d="M605.853 138.994C605.853 129.982 613.158 122.677 622.17 122.677H665.682C674.694 122.677 682 129.982 682 138.994V182.507C682 191.518 674.694 198.824 665.682 198.824H622.17C613.158 198.824 605.853 191.518 605.853 182.507V138.994Z" fill="white" shape-rendering="crispEdges"/>
<path d="M605.853 138.994C605.853 129.982 613.158 122.677 622.17 122.677H665.682C674.694 122.677 682 129.982 682 138.994V182.507C682 191.518 674.694 198.824 665.682 198.824H622.17C613.158 198.824 605.853 191.518 605.853 182.507V138.994Z" fill="url(#paint18_linear_1_13412)" fill-opacity="0.2" shape-rendering="crispEdges"/>
<path d="M606.192 138.994C606.192 130.17 613.346 123.017 622.17 123.017H665.682C674.506 123.017 681.66 130.17 681.66 138.994V182.507C681.66 191.331 674.506 198.484 665.682 198.484H622.17C613.346 198.484 606.192 191.331 606.192 182.507V138.994Z" stroke="#1380ED" stroke-opacity="0.15" stroke-width="0.679884" shape-rendering="crispEdges"/>
<path d="M642.566 147.22V162.11H657.456C656.774 168.982 650.977 174.348 643.926 174.348C636.416 174.348 630.328 168.26 630.328 160.75C630.328 153.7 635.695 147.902 642.566 147.22ZM645.286 145.171C652.837 145.822 658.854 151.839 659.505 159.391H645.286V145.171Z" fill="#006FDD"/>
<path d="M642.566 147.22V162.11H657.456C656.774 168.982 650.977 174.348 643.926 174.348C636.416 174.348 630.328 168.26 630.328 160.75C630.328 153.7 635.695 147.902 642.566 147.22ZM645.286 145.171C652.837 145.822 658.854 151.839 659.505 159.391H645.286V145.171Z" fill="url(#paint19_linear_1_13412)" fill-opacity="0.4"/>
</g>
<g filter="url(#filter19_di_1_13412)">
<path d="M605.853 243.725C605.853 234.714 613.158 227.408 622.17 227.408H665.682C674.694 227.408 682 234.714 682 243.725V287.238C682 296.25 674.694 303.555 665.682 303.555H622.17C613.158 303.555 605.853 296.25 605.853 287.238V243.725Z" fill="white" shape-rendering="crispEdges"/>
<path d="M605.853 243.725C605.853 234.714 613.158 227.408 622.17 227.408H665.682C674.694 227.408 682 234.714 682 243.725V287.238C682 296.25 674.694 303.555 665.682 303.555H622.17C613.158 303.555 605.853 296.25 605.853 287.238V243.725Z" fill="url(#paint20_linear_1_13412)" fill-opacity="0.2" shape-rendering="crispEdges"/>
<path d="M606.192 243.725C606.192 234.901 613.346 227.748 622.17 227.748H665.682C674.506 227.748 681.66 234.901 681.66 243.725V287.238C681.66 296.062 674.506 303.215 665.682 303.215H622.17C613.346 303.215 606.192 296.062 606.192 287.238V243.725Z" stroke="#1380ED" stroke-opacity="0.15" stroke-width="0.679884" shape-rendering="crispEdges"/>
<path d="M633.047 265.482H654.804C655.555 265.482 656.163 266.091 656.163 266.842V277.72C656.163 278.471 655.555 279.08 654.804 279.08H633.047C632.296 279.08 631.688 278.471 631.688 277.72V266.842C631.688 266.091 632.296 265.482 633.047 265.482ZM634.407 251.884H653.444V262.762H634.407V251.884ZM639.846 255.964V258.683H642.566V255.964H639.846ZM645.285 255.964V258.683H648.005V255.964H645.285Z" fill="#006FDD"/>
<path d="M633.047 265.482H654.804C655.555 265.482 656.163 266.091 656.163 266.842V277.72C656.163 278.471 655.555 279.08 654.804 279.08H633.047C632.296 279.08 631.688 278.471 631.688 277.72V266.842C631.688 266.091 632.296 265.482 633.047 265.482ZM634.407 251.884H653.444V262.762H634.407V251.884ZM639.846 255.964V258.683H642.566V255.964H639.846ZM645.285 255.964V258.683H648.005V255.964H645.285Z" fill="url(#paint21_linear_1_13412)" fill-opacity="0.4"/>
</g>
<g filter="url(#filter20_di_1_13412)">
<path d="M545.321 47.7142C545.321 38.7025 552.627 31.397 561.639 31.397H605.151C614.163 31.397 621.468 38.7024 621.468 47.7142V91.2268C621.468 100.239 614.163 107.544 605.151 107.544H561.639C552.627 107.544 545.321 100.239 545.321 91.2268V47.7142Z" fill="white" shape-rendering="crispEdges"/>
<path d="M545.321 47.7142C545.321 38.7025 552.627 31.397 561.639 31.397H605.151C614.163 31.397 621.468 38.7024 621.468 47.7142V91.2268C621.468 100.239 614.163 107.544 605.151 107.544H561.639C552.627 107.544 545.321 100.239 545.321 91.2268V47.7142Z" fill="url(#paint22_linear_1_13412)" fill-opacity="0.2" shape-rendering="crispEdges"/>
<path d="M545.661 47.7142C545.661 38.8902 552.815 31.7369 561.639 31.7369H605.151C613.975 31.7369 621.128 38.8902 621.128 47.7142V91.2268C621.128 100.051 613.975 107.204 605.151 107.204H561.639C552.815 107.204 545.661 100.051 545.661 91.2268V47.7142Z" stroke="#1380ED" stroke-opacity="0.15" stroke-width="0.679884" shape-rendering="crispEdges"/>
<path d="M572.516 57.2324H594.272C595.023 57.2324 595.632 57.8412 595.632 58.5922V68.1106H571.156V58.5922C571.156 57.8412 571.765 57.2324 572.516 57.2324ZM571.156 70.8301H595.632V80.3485C595.632 81.0995 595.023 81.7083 594.272 81.7083H572.516C571.765 81.7083 571.156 81.0995 571.156 80.3485V70.8301ZM576.595 74.9094V77.629H580.675V74.9094H576.595ZM576.595 61.3117V64.0313H580.675V61.3117H576.595Z" fill="#006FDD"/>
<path d="M572.516 57.2324H594.272C595.023 57.2324 595.632 57.8412 595.632 58.5922V68.1106H571.156V58.5922C571.156 57.8412 571.765 57.2324 572.516 57.2324ZM571.156 70.8301H595.632V80.3485C595.632 81.0995 595.023 81.7083 594.272 81.7083H572.516C571.765 81.7083 571.156 81.0995 571.156 80.3485V70.8301ZM576.595 74.9094V77.629H580.675V74.9094H576.595ZM576.595 61.3117V64.0313H580.675V61.3117H576.595Z" fill="url(#paint23_linear_1_13412)" fill-opacity="0.4"/>
</g>
<defs>
<filter id="filter0_f_1_13412" x="228.675" y="85.807" width="256.723" height="256.723" filterUnits="userSpaceOnUse" color-interpolation-filters="sRGB">
<feFlood flood-opacity="0" result="BackgroundImageFix"/>
<feBlend mode="normal" in="SourceGraphic" in2="BackgroundImageFix" result="shape"/>
<feGaussianBlur stdDeviation="7.24786" result="effect1_foregroundBlur_1_13412"/>
</filter>
<filter id="filter1_i_1_13412" x="212.575" y="69.7069" width="258.328" height="258.328" filterUnits="userSpaceOnUse" color-interpolation-filters="sRGB">
<feFlood flood-opacity="0" result="BackgroundImageFix"/>
<feBlend mode="normal" in="SourceGraphic" in2="BackgroundImageFix" result="shape"/>
<feColorMatrix in="SourceAlpha" type="matrix" values="0 0 0 0 0 0 0 0 0 0 0 0 0 0 0 0 0 0 127 0" result="hardAlpha"/>
<feOffset dx="-30.5958" dy="-30.5958"/>
<feGaussianBlur stdDeviation="34.4203"/>
<feComposite in2="hardAlpha" operator="arithmetic" k2="-1" k3="1"/>
<feColorMatrix type="matrix" values="0 0 0 0 0.075 0 0 0 0 0.5375 0 0 0 0 1 0 0 0 1 0"/>
<feBlend mode="normal" in2="shape" result="effect1_innerShadow_1_13412"/>
</filter>
<filter id="filter2_f_1_13412" x="222.774" y="79.9055" width="268.526" height="268.526" filterUnits="userSpaceOnUse" color-interpolation-filters="sRGB">
<feFlood flood-opacity="0" result="BackgroundImageFix"/>
<feBlend mode="normal" in="SourceGraphic" in2="BackgroundImageFix" result="shape"/>
<feGaussianBlur stdDeviation="10.1986" result="effect1_foregroundBlur_1_13412"/>
</filter>
<filter id="filter3_i_1_13412" x="243.171" y="100.303" width="231.556" height="231.556" filterUnits="userSpaceOnUse" color-interpolation-filters="sRGB">
<feFlood flood-opacity="0" result="BackgroundImageFix"/>
<feBlend mode="normal" in="SourceGraphic" in2="BackgroundImageFix" result="shape"/>
<feColorMatrix in="SourceAlpha" type="matrix" values="0 0 0 0 0 0 0 0 0 0 0 0 0 0 0 0 0 0 127 0" result="hardAlpha"/>
<feOffset dx="3.82448" dy="3.82448"/>
<feGaussianBlur stdDeviation="2.54965"/>
<feComposite in2="hardAlpha" operator="arithmetic" k2="-1" k3="1"/>
<feColorMatrix type="matrix" values="0 0 0 0 1 0 0 0 0 1 0 0 0 0 1 0 0 0 1 0"/>
<feBlend mode="normal" in2="shape" result="effect1_innerShadow_1_13412"/>
</filter>
<filter id="filter4_f_1_13412" x="266.123" y="111.868" width="104.308" height="104.308" filterUnits="userSpaceOnUse" color-interpolation-filters="sRGB">
<feFlood flood-opacity="0" result="BackgroundImageFix"/>
<feBlend mode="normal" in="SourceGraphic" in2="BackgroundImageFix" result="shape"/>
<feGaussianBlur stdDeviation="15.2979" result="effect1_foregroundBlur_1_13412"/>
</filter>
<filter id="filter5_f_1_13412" x="360.269" y="225.941" width="109.878" height="109.878" filterUnits="userSpaceOnUse" color-interpolation-filters="sRGB">
<feFlood flood-opacity="0" result="BackgroundImageFix"/>
<feBlend mode="normal" in="SourceGraphic" in2="BackgroundImageFix" result="shape"/>
<feGaussianBlur stdDeviation="15.2979" result="effect1_foregroundBlur_1_13412"/>
</filter>
<filter id="filter6_f_1_13412" x="234.99" y="88.5917" width="108.879" height="105.292" filterUnits="userSpaceOnUse" color-interpolation-filters="sRGB">
<feFlood flood-opacity="0" result="BackgroundImageFix"/>
<feBlend mode="normal" in="SourceGraphic" in2="BackgroundImageFix" result="shape"/>
<feGaussianBlur stdDeviation="7.64895" result="effect1_foregroundBlur_1_13412"/>
</filter>
<filter id="filter7_f_1_13412" x="241.646" y="91.9699" width="80.1516" height="76.6154" filterUnits="userSpaceOnUse" color-interpolation-filters="sRGB">
<feFlood flood-opacity="0" result="BackgroundImageFix"/>
<feBlend mode="normal" in="SourceGraphic" in2="BackgroundImageFix" result="shape"/>
<feGaussianBlur stdDeviation="13.3857" result="effect1_foregroundBlur_1_13412"/>
</filter>
<filter id="filter8_f_1_13412" x="210.935" y="63.4756" width="141.573" height="133.603" filterUnits="userSpaceOnUse" color-interpolation-filters="sRGB">
<feFlood flood-opacity="0" result="BackgroundImageFix"/>
<feBlend mode="normal" in="SourceGraphic" in2="BackgroundImageFix" result="shape"/>
<feGaussianBlur stdDeviation="20.3972" result="effect1_foregroundBlur_1_13412"/>
</filter>
<filter id="filter9_f_1_13412" x="398.743" y="268.994" width="64.8537" height="61.3175" filterUnits="userSpaceOnUse" color-interpolation-filters="sRGB">
<feFlood flood-opacity="0" result="BackgroundImageFix"/>
<feBlend mode="normal" in="SourceGraphic" in2="BackgroundImageFix" result="shape"/>
<feGaussianBlur stdDeviation="9.56119" result="effect1_foregroundBlur_1_13412"/>
</filter>
<filter id="filter10_f_1_13412" x="250.279" y="99.8884" width="62.8852" height="60.7773" filterUnits="userSpaceOnUse" color-interpolation-filters="sRGB">
<feFlood flood-opacity="0" result="BackgroundImageFix"/>
<feBlend mode="normal" in="SourceGraphic" in2="BackgroundImageFix" result="shape"/>
<feGaussianBlur stdDeviation="10.1986" result="effect1_foregroundBlur_1_13412"/>
</filter>
<filter id="filter11_dd_1_13412" x="326.903" y="184.527" width="59.8642" height="59.8642" filterUnits="userSpaceOnUse" color-interpolation-filters="sRGB">
<feFlood flood-opacity="0" result="BackgroundImageFix"/>
<feColorMatrix in="SourceAlpha" type="matrix" values="0 0 0 0 0 0 0 0 0 0 0 0 0 0 0 0 0 0 127 0" result="hardAlpha"/>
<feOffset dy="1.43465"/>
<feGaussianBlur stdDeviation="1.43465"/>
<feColorMatrix type="matrix" values="0 0 0 0 0.0784314 0 0 0 0 0.0823529 0 0 0 0 0.101961 0 0 0 0.06 0"/>
<feBlend mode="normal" in2="BackgroundImageFix" result="effect1_dropShadow_1_13412"/>
<feColorMatrix in="SourceAlpha" type="matrix" values="0 0 0 0 0 0 0 0 0 0 0 0 0 0 0 0 0 0 127 0" result="hardAlpha"/>
<feOffset dy="1.43465"/>
<feGaussianBlur stdDeviation="2.15197"/>
<feColorMatrix type="matrix" values="0 0 0 0 0.0784314 0 0 0 0 0.0823529 0 0 0 0 0.101961 0 0 0 0.1 0"/>
<feBlend mode="normal" in2="effect1_dropShadow_1_13412" result="effect2_dropShadow_1_13412"/>
<feBlend mode="normal" in="SourceGraphic" in2="effect2_dropShadow_1_13412" result="shape"/>
</filter>
<filter id="filter12_f_1_13412" x="329.732" y="208.908" width="4.72227" height="6.6627" filterUnits="userSpaceOnUse" color-interpolation-filters="sRGB">
<feFlood flood-opacity="0" result="BackgroundImageFix"/>
<feBlend mode="normal" in="SourceGraphic" in2="BackgroundImageFix" result="shape"/>
<feGaussianBlur stdDeviation="0.572658" result="effect1_foregroundBlur_1_13412"/>
</filter>
<filter id="filter13_di_1_13412" x="40.0177" y="289.194" width="79.7936" height="79.7936" filterUnits="userSpaceOnUse" color-interpolation-filters="sRGB">
<feFlood flood-opacity="0" result="BackgroundImageFix"/>
<feColorMatrix in="SourceAlpha" type="matrix" values="0 0 0 0 0 0 0 0 0 0 0 0 0 0 0 0 0 0 127 0" result="hardAlpha"/>
<feMorphology radius="0.676219" operator="erode" in="SourceAlpha" result="effect1_dropShadow_1_13412"/>
<feOffset dy="1.35244"/>
<feGaussianBlur stdDeviation="1.35244"/>
<feComposite in2="hardAlpha" operator="out"/>
<feColorMatrix type="matrix" values="0 0 0 0 0.0862745 0 0 0 0 0.0980392 0 0 0 0 0.113725 0 0 0 0.04 0"/>
<feBlend mode="normal" in2="BackgroundImageFix" result="effect1_dropShadow_1_13412"/>
<feBlend mode="normal" in="SourceGraphic" in2="effect1_dropShadow_1_13412" result="shape"/>
<feColorMatrix in="SourceAlpha" type="matrix" values="0 0 0 0 0 0 0 0 0 0 0 0 0 0 0 0 0 0 127 0" result="hardAlpha"/>
<feOffset dy="-0.676219"/>
<feComposite in2="hardAlpha" operator="arithmetic" k2="-1" k3="1"/>
<feColorMatrix type="matrix" values="0 0 0 0 0.0862745 0 0 0 0 0.0980392 0 0 0 0 0.113725 0 0 0 0.12 0"/>
<feBlend mode="normal" in2="shape" result="effect2_innerShadow_1_13412"/>
</filter>
<filter id="filter14_di_1_13412" x="23.7121" y="125.366" width="79.7936" height="79.7936" filterUnits="userSpaceOnUse" color-interpolation-filters="sRGB">
<feFlood flood-opacity="0" result="BackgroundImageFix"/>
<feColorMatrix in="SourceAlpha" type="matrix" values="0 0 0 0 0 0 0 0 0 0 0 0 0 0 0 0 0 0 127 0" result="hardAlpha"/>
<feMorphology radius="0.676219" operator="erode" in="SourceAlpha" result="effect1_dropShadow_1_13412"/>
<feOffset dy="1.35244"/>
<feGaussianBlur stdDeviation="1.35244"/>
<feComposite in2="hardAlpha" operator="out"/>
<feColorMatrix type="matrix" values="0 0 0 0 0.0862745 0 0 0 0 0.0980392 0 0 0 0 0.113725 0 0 0 0.04 0"/>
<feBlend mode="normal" in2="BackgroundImageFix" result="effect1_dropShadow_1_13412"/>
<feBlend mode="normal" in="SourceGraphic" in2="effect1_dropShadow_1_13412" result="shape"/>
<feColorMatrix in="SourceAlpha" type="matrix" values="0 0 0 0 0 0 0 0 0 0 0 0 0 0 0 0 0 0 127 0" result="hardAlpha"/>
<feOffset dy="-0.676219"/>
<feComposite in2="hardAlpha" operator="arithmetic" k2="-1" k3="1"/>
<feColorMatrix type="matrix" values="0 0 0 0 0.0862745 0 0 0 0 0.0980392 0 0 0 0 0.113725 0 0 0 0.12 0"/>
<feBlend mode="normal" in2="shape" result="effect2_innerShadow_1_13412"/>
</filter>
<filter id="filter15_di_1_13412" x="1.97134" y="194.706" width="79.7936" height="79.7936" filterUnits="userSpaceOnUse" color-interpolation-filters="sRGB">
<feFlood flood-opacity="0" result="BackgroundImageFix"/>
<feColorMatrix in="SourceAlpha" type="matrix" values="0 0 0 0 0 0 0 0 0 0 0 0 0 0 0 0 0 0 127 0" result="hardAlpha"/>
<feMorphology radius="0.676219" operator="erode" in="SourceAlpha" result="effect1_dropShadow_1_13412"/>
<feOffset dy="1.35244"/>
<feGaussianBlur stdDeviation="1.35244"/>
<feComposite in2="hardAlpha" operator="out"/>
<feColorMatrix type="matrix" values="0 0 0 0 0.0862745 0 0 0 0 0.0980392 0 0 0 0 0.113725 0 0 0 0.04 0"/>
<feBlend mode="normal" in2="BackgroundImageFix" result="effect1_dropShadow_1_13412"/>
<feBlend mode="normal" in="SourceGraphic" in2="effect1_dropShadow_1_13412" result="shape"/>
<feColorMatrix in="SourceAlpha" type="matrix" values="0 0 0 0 0 0 0 0 0 0 0 0 0 0 0 0 0 0 127 0" result="hardAlpha"/>
<feOffset dy="-0.676219"/>
<feComposite in2="hardAlpha" operator="arithmetic" k2="-1" k3="1"/>
<feColorMatrix type="matrix" values="0 0 0 0 0.0862745 0 0 0 0 0.0980392 0 0 0 0 0.113725 0 0 0 0.12 0"/>
<feBlend mode="normal" in2="shape" result="effect2_innerShadow_1_13412"/>
</filter>
<filter id="filter16_di_1_13412" x="96.0417" y="59.2452" width="79.7936" height="79.7936" filterUnits="userSpaceOnUse" color-interpolation-filters="sRGB">
<feFlood flood-opacity="0" result="BackgroundImageFix"/>
<feColorMatrix in="SourceAlpha" type="matrix" values="0 0 0 0 0 0 0 0 0 0 0 0 0 0 0 0 0 0 127 0" result="hardAlpha"/>
<feMorphology radius="0.676219" operator="erode" in="SourceAlpha" result="effect1_dropShadow_1_13412"/>
<feOffset dy="1.35244"/>
<feGaussianBlur stdDeviation="1.35244"/>
<feComposite in2="hardAlpha" operator="out"/>
<feColorMatrix type="matrix" values="0 0 0 0 0.0862745 0 0 0 0 0.0980392 0 0 0 0 0.113725 0 0 0 0.04 0"/>
<feBlend mode="normal" in2="BackgroundImageFix" result="effect1_dropShadow_1_13412"/>
<feBlend mode="normal" in="SourceGraphic" in2="effect1_dropShadow_1_13412" result="shape"/>
<feColorMatrix in="SourceAlpha" type="matrix" values="0 0 0 0 0 0 0 0 0 0 0 0 0 0 0 0 0 0 127 0" result="hardAlpha"/>
<feOffset dy="-0.676219"/>
<feComposite in2="hardAlpha" operator="arithmetic" k2="-1" k3="1"/>
<feColorMatrix type="matrix" values="0 0 0 0 0.0862745 0 0 0 0 0.0980392 0 0 0 0 0.113725 0 0 0 0.12 0"/>
<feBlend mode="normal" in2="shape" result="effect2_innerShadow_1_13412"/>
</filter>
<filter id="filter17_di_1_13412" x="543.282" y="317.883" width="80.2268" height="80.2263" filterUnits="userSpaceOnUse" color-interpolation-filters="sRGB">
<feFlood flood-opacity="0" result="BackgroundImageFix"/>
<feColorMatrix in="SourceAlpha" type="matrix" values="0 0 0 0 0 0 0 0 0 0 0 0 0 0 0 0 0 0 127 0" result="hardAlpha"/>
<feMorphology radius="0.679884" operator="erode" in="SourceAlpha" result="effect1_dropShadow_1_13412"/>
<feOffset dy="1.35977"/>
<feGaussianBlur stdDeviation="1.35977"/>
<feComposite in2="hardAlpha" operator="out"/>
<feColorMatrix type="matrix" values="0 0 0 0 0.0862745 0 0 0 0 0.0980392 0 0 0 0 0.113725 0 0 0 0.04 0"/>
<feBlend mode="normal" in2="BackgroundImageFix" result="effect1_dropShadow_1_13412"/>
<feBlend mode="normal" in="SourceGraphic" in2="effect1_dropShadow_1_13412" result="shape"/>
<feColorMatrix in="SourceAlpha" type="matrix" values="0 0 0 0 0 0 0 0 0 0 0 0 0 0 0 0 0 0 127 0" result="hardAlpha"/>
<feOffset dy="-0.679884"/>
<feComposite in2="hardAlpha" operator="arithmetic" k2="-1" k3="1"/>
<feColorMatrix type="matrix" values="0 0 0 0 0.0862745 0 0 0 0 0.0980392 0 0 0 0 0.113725 0 0 0 0.12 0"/>
<feBlend mode="normal" in2="shape" result="effect2_innerShadow_1_13412"/>
</filter>
<filter id="filter18_di_1_13412" x="603.813" y="121.997" width="80.2268" height="80.2263" filterUnits="userSpaceOnUse" color-interpolation-filters="sRGB">
<feFlood flood-opacity="0" result="BackgroundImageFix"/>
<feColorMatrix in="SourceAlpha" type="matrix" values="0 0 0 0 0 0 0 0 0 0 0 0 0 0 0 0 0 0 127 0" result="hardAlpha"/>
<feMorphology radius="0.679884" operator="erode" in="SourceAlpha" result="effect1_dropShadow_1_13412"/>
<feOffset dy="1.35977"/>
<feGaussianBlur stdDeviation="1.35977"/>
<feComposite in2="hardAlpha" operator="out"/>
<feColorMatrix type="matrix" values="0 0 0 0 0.0862745 0 0 0 0 0.0980392 0 0 0 0 0.113725 0 0 0 0.04 0"/>
<feBlend mode="normal" in2="BackgroundImageFix" result="effect1_dropShadow_1_13412"/>
<feBlend mode="normal" in="SourceGraphic" in2="effect1_dropShadow_1_13412" result="shape"/>
<feColorMatrix in="SourceAlpha" type="matrix" values="0 0 0 0 0 0 0 0 0 0 0 0 0 0 0 0 0 0 127 0" result="hardAlpha"/>
<feOffset dy="-0.679884"/>
<feComposite in2="hardAlpha" operator="arithmetic" k2="-1" k3="1"/>
<feColorMatrix type="matrix" values="0 0 0 0 0.0862745 0 0 0 0 0.0980392 0 0 0 0 0.113725 0 0 0 0.12 0"/>
<feBlend mode="normal" in2="shape" result="effect2_innerShadow_1_13412"/>
</filter>
<filter id="filter19_di_1_13412" x="603.813" y="226.728" width="80.2268" height="80.2263" filterUnits="userSpaceOnUse" color-interpolation-filters="sRGB">
<feFlood flood-opacity="0" result="BackgroundImageFix"/>
<feColorMatrix in="SourceAlpha" type="matrix" values="0 0 0 0 0 0 0 0 0 0 0 0 0 0 0 0 0 0 127 0" result="hardAlpha"/>
<feMorphology radius="0.679884" operator="erode" in="SourceAlpha" result="effect1_dropShadow_1_13412"/>
<feOffset dy="1.35977"/>
<feGaussianBlur stdDeviation="1.35977"/>
<feComposite in2="hardAlpha" operator="out"/>
<feColorMatrix type="matrix" values="0 0 0 0 0.0862745 0 0 0 0 0.0980392 0 0 0 0 0.113725 0 0 0 0.04 0"/>
<feBlend mode="normal" in2="BackgroundImageFix" result="effect1_dropShadow_1_13412"/>
<feBlend mode="normal" in="SourceGraphic" in2="effect1_dropShadow_1_13412" result="shape"/>
<feColorMatrix in="SourceAlpha" type="matrix" values="0 0 0 0 0 0 0 0 0 0 0 0 0 0 0 0 0 0 127 0" result="hardAlpha"/>
<feOffset dy="-0.679884"/>
<feComposite in2="hardAlpha" operator="arithmetic" k2="-1" k3="1"/>
<feColorMatrix type="matrix" values="0 0 0 0 0.0862745 0 0 0 0 0.0980392 0 0 0 0 0.113725 0 0 0 0.12 0"/>
<feBlend mode="normal" in2="shape" result="effect2_innerShadow_1_13412"/>
</filter>
<filter id="filter20_di_1_13412" x="543.282" y="30.7171" width="80.2268" height="80.2263" filterUnits="userSpaceOnUse" color-interpolation-filters="sRGB">
<feFlood flood-opacity="0" result="BackgroundImageFix"/>
<feColorMatrix in="SourceAlpha" type="matrix" values="0 0 0 0 0 0 0 0 0 0 0 0 0 0 0 0 0 0 127 0" result="hardAlpha"/>
<feMorphology radius="0.679884" operator="erode" in="SourceAlpha" result="effect1_dropShadow_1_13412"/>
<feOffset dy="1.35977"/>
<feGaussianBlur stdDeviation="1.35977"/>
<feComposite in2="hardAlpha" operator="out"/>
<feColorMatrix type="matrix" values="0 0 0 0 0.0862745 0 0 0 0 0.0980392 0 0 0 0 0.113725 0 0 0 0.04 0"/>
<feBlend mode="normal" in2="BackgroundImageFix" result="effect1_dropShadow_1_13412"/>
<feBlend mode="normal" in="SourceGraphic" in2="effect1_dropShadow_1_13412" result="shape"/>
<feColorMatrix in="SourceAlpha" type="matrix" values="0 0 0 0 0 0 0 0 0 0 0 0 0 0 0 0 0 0 127 0" result="hardAlpha"/>
<feOffset dy="-0.679884"/>
<feComposite in2="hardAlpha" operator="arithmetic" k2="-1" k3="1"/>
<feColorMatrix type="matrix" values="0 0 0 0 0.0862745 0 0 0 0 0.0980392 0 0 0 0 0.113725 0 0 0 0.12 0"/>
<feBlend mode="normal" in2="shape" result="effect2_innerShadow_1_13412"/>
</filter>
<linearGradient id="paint0_linear_1_13412" x1="243.171" y1="100.303" x2="470.903" y2="328.035" gradientUnits="userSpaceOnUse">
<stop stop-color="#0D94FB"/>
<stop offset="0.755208" stop-color="#0DC3FB" stop-opacity="0.1"/>
</linearGradient>
<linearGradient id="paint1_linear_1_13412" x1="275.053" y1="132.185" x2="439.02" y2="296.152" gradientUnits="userSpaceOnUse">
<stop stop-color="#79AFFF"/>
<stop offset="0.255208" stop-color="#5C87FF"/>
<stop offset="0.541667" stop-color="#669EFF"/>
<stop offset="1" stop-color="#0047FF"/>
</linearGradient>
<radialGradient id="paint2_radial_1_13412" cx="0" cy="0" r="1" gradientUnits="userSpaceOnUse" gradientTransform="translate(357.037 214.169) rotate(90) scale(113.866)">
<stop stop-color="#51C2FF" stop-opacity="0"/>
<stop offset="1" stop-color="#51C2FF"/>
</radialGradient>
<linearGradient id="paint3_linear_1_13412" x1="243.171" y1="100.303" x2="470.903" y2="328.035" gradientUnits="userSpaceOnUse">
<stop stop-color="#B2E0F9"/>
<stop offset="1" stop-color="#6D8FFF" stop-opacity="0.1"/>
</linearGradient>
<linearGradient id="paint4_linear_1_13412" x1="356.835" y1="161.768" x2="356.835" y2="264.28" gradientUnits="userSpaceOnUse">
<stop stop-color="#6199FF"/>
<stop offset="1" stop-color="#045CFB"/>
</linearGradient>
<radialGradient id="paint5_radial_1_13412" cx="0" cy="0" r="1" gradientUnits="userSpaceOnUse" gradientTransform="translate(351.351 207.676) rotate(90) scale(45.9087 46.0441)">
<stop stop-color="white"/>
<stop offset="1" stop-color="#999999" stop-opacity="0.03"/>
</radialGradient>
<linearGradient id="paint6_linear_1_13412" x1="356.834" y1="187.396" x2="356.834" y2="238.652" gradientUnits="userSpaceOnUse">
<stop stop-color="white"/>
<stop offset="1" stop-color="#D0DFFA"/>
</linearGradient>
<linearGradient id="paint7_linear_1_13412" x1="330.736" y1="212.812" x2="330.736" y2="233.126" gradientUnits="userSpaceOnUse">
<stop stop-color="white"/>
<stop offset="1" stop-color="white" stop-opacity="0"/>
</linearGradient>
<linearGradient id="paint8_linear_1_13412" x1="79.9147" y1="293.928" x2="79.9147" y2="365.607" gradientUnits="userSpaceOnUse">
<stop stop-color="#FFA053" stop-opacity="0"/>
<stop offset="1" stop-color="#FFA053"/>
</linearGradient>
<linearGradient id="paint9_linear_1_13412" x1="90.7345" y1="341.263" x2="79.915" y2="315.567" gradientUnits="userSpaceOnUse">
<stop stop-color="white" stop-opacity="0"/>
<stop offset="1" stop-color="white"/>
</linearGradient>
<linearGradient id="paint10_linear_1_13412" x1="63.609" y1="130.099" x2="63.609" y2="201.779" gradientUnits="userSpaceOnUse">
<stop stop-color="#37B482" stop-opacity="0"/>
<stop offset="1" stop-color="#37B482"/>
</linearGradient>
<linearGradient id="paint11_linear_1_13412" x1="76.2024" y1="177.435" x2="63.5465" y2="148.88" gradientUnits="userSpaceOnUse">
<stop stop-color="white" stop-opacity="0"/>
<stop offset="1" stop-color="white"/>
</linearGradient>
<linearGradient id="paint12_linear_1_13412" x1="41.8683" y1="199.44" x2="41.8683" y2="271.119" gradientUnits="userSpaceOnUse">
<stop stop-color="#FFAAAA" stop-opacity="0"/>
<stop offset="1" stop-color="#8653FF"/>
</linearGradient>
<linearGradient id="paint13_linear_1_13412" x1="51.6058" y1="246.775" x2="38.9847" y2="221.147" gradientUnits="userSpaceOnUse">
<stop stop-color="white" stop-opacity="0"/>
<stop offset="1" stop-color="white"/>
</linearGradient>
<linearGradient id="paint14_linear_1_13412" x1="135.939" y1="63.9787" x2="135.939" y2="135.658" gradientUnits="userSpaceOnUse">
<stop stop-color="#FFAAAA" stop-opacity="0"/>
<stop offset="1" stop-color="#FFAAAA"/>
</linearGradient>
<linearGradient id="paint15_linear_1_13412" x1="145.676" y1="109.962" x2="135.059" y2="86.0074" gradientUnits="userSpaceOnUse">
<stop stop-color="white" stop-opacity="0"/>
<stop offset="1" stop-color="white"/>
</linearGradient>
<linearGradient id="paint16_linear_1_13412" x1="583.395" y1="322.642" x2="583.395" y2="394.71" gradientUnits="userSpaceOnUse">
<stop stop-color="#AAD6FF" stop-opacity="0"/>
<stop offset="1" stop-color="#AAD6FF"/>
</linearGradient>
<linearGradient id="paint17_linear_1_13412" x1="594.273" y1="370.234" x2="583.395" y2="344.398" gradientUnits="userSpaceOnUse">
<stop stop-color="white" stop-opacity="0"/>
<stop offset="1" stop-color="white"/>
</linearGradient>
<linearGradient id="paint18_linear_1_13412" x1="643.926" y1="126.756" x2="643.926" y2="198.824" gradientUnits="userSpaceOnUse">
<stop stop-color="#AAD6FF" stop-opacity="0"/>
<stop offset="1" stop-color="#AAD6FF"/>
</linearGradient>
<linearGradient id="paint19_linear_1_13412" x1="656.587" y1="174.348" x2="643.863" y2="145.638" gradientUnits="userSpaceOnUse">
<stop stop-color="white" stop-opacity="0"/>
<stop offset="1" stop-color="white"/>
</linearGradient>
<linearGradient id="paint20_linear_1_13412" x1="643.926" y1="231.488" x2="643.926" y2="303.555" gradientUnits="userSpaceOnUse">
<stop stop-color="#AAD6FF" stop-opacity="0"/>
<stop offset="1" stop-color="#AAD6FF"/>
</linearGradient>
<linearGradient id="paint21_linear_1_13412" x1="653.716" y1="279.08" x2="641.026" y2="253.312" gradientUnits="userSpaceOnUse">
<stop stop-color="white" stop-opacity="0"/>
<stop offset="1" stop-color="white"/>
</linearGradient>
<linearGradient id="paint22_linear_1_13412" x1="583.395" y1="35.4763" x2="583.395" y2="107.544" gradientUnits="userSpaceOnUse">
<stop stop-color="#AAD6FF" stop-opacity="0"/>
<stop offset="1" stop-color="#AAD6FF"/>
</linearGradient>
<linearGradient id="paint23_linear_1_13412" x1="593.184" y1="81.7083" x2="582.51" y2="57.6242" gradientUnits="userSpaceOnUse">
<stop stop-color="white" stop-opacity="0"/>
<stop offset="1" stop-color="white"/>
</linearGradient>
<clipPath id="clip0_1_13412">
<rect x="305.578" y="161.768" width="102.513" height="102.513" rx="22.9544" fill="white"/>
</clipPath>
<clipPath id="clip1_1_13412">
<rect width="51.2564" height="51.2564" fill="white" transform="translate(331.207 187.396)"/>
</clipPath>
<clipPath id="clip2_1_13412">
<rect width="32.4585" height="32.4585" fill="white" transform="translate(47.3799 147.681)"/>
</clipPath>
</defs>
</svg>
