<svg width="90" height="74" viewBox="0 0 90 74" fill="none" xmlns="http://www.w3.org/2000/svg">
<path d="M4.10352 38.2112C3.28263 37.6334 2.5852 37.0061 2.01096 36.3446C0.726389 34.8648 0.0582757 33.2136 0.00364842 31.5615C-0.00121648 31.4144 -0.00121579 31.2673 0.00364842 31.1203C0.085238 28.6543 1.53517 26.2204 4.34357 24.3871L35.286 4.18749C40.9823 0.468852 50.1104 0.629019 55.6742 4.54524L85.8965 25.8181C88.7499 27.8265 90.1117 30.4329 89.9929 32.9972C89.9176 34.6209 89.2487 36.2278 87.989 37.6554C87.3591 38.3693 86.5815 39.0383 85.6564 39.6422L54.714 59.8418C49.0177 63.5604 39.8896 63.4002 34.3258 59.484L4.10352 38.2112Z" fill="url(#paint0_linear_10669_2463)"/>
<path d="M54.714 69.8125L85.6564 49.6129C88.4313 47.8014 89.88 45.4037 89.9929 42.968V42.3501V32.9972C89.9176 34.6209 89.2487 36.2278 87.989 37.6554C87.3591 38.3693 86.5815 39.0383 85.6564 39.6422L54.714 59.8418C49.0177 63.5604 39.8896 63.4002 34.3258 59.484L4.10352 38.2112C3.28263 37.6334 2.5852 37.0061 2.01096 36.3446C0.726389 34.8648 0.0582757 33.2136 0.00364842 31.5615V41.091C-0.080252 43.6268 1.2828 46.1965 4.10352 48.1819L34.3258 69.4548C39.8896 73.371 49.0177 73.5311 54.714 69.8125Z" fill="url(#paint1_linear_10669_2463)"/>
<path d="M88.1765 37.8208C88.8732 37.0312 89.3963 36.1851 89.7429 35.3087V42.3501V42.9623C89.6325 45.298 88.2415 47.6268 85.5198 49.4036L54.5774 69.6032C51.7793 71.4298 48.1249 72.3108 44.4746 72.2467C40.8242 72.1827 37.2027 71.174 34.4697 69.2503L4.24742 47.9775C1.47858 46.0286 0.173023 43.5319 0.253512 41.0993L0.253648 41.0993V41.091V33.961C0.599635 34.8453 1.12319 35.7032 1.82216 36.5085C2.41079 37.1866 3.12364 37.8272 3.95963 38.4156L34.1819 59.6885C37.0127 61.681 40.7371 62.7105 44.4658 62.7759C48.1946 62.8414 51.9524 61.9432 54.8507 60.0511L85.7931 39.8515C86.7351 39.2365 87.5303 38.5531 88.1765 37.8208ZM89.7429 32.9915C89.6692 34.55 89.0265 36.1018 87.8016 37.49C87.1879 38.1854 86.4278 38.8401 85.5198 39.4328L54.5774 59.6324C51.7793 61.459 48.1249 62.3401 44.4746 62.276C40.8242 62.212 37.2027 61.2033 34.4697 59.2796L4.24742 38.0068C3.44162 37.4396 2.7596 36.8257 2.19975 36.1807C0.949078 34.7399 0.307118 33.1438 0.253648 31.5574V31.1244C0.333413 28.7594 1.725 26.3951 4.48023 24.5964L35.4226 4.39683C38.2207 2.57023 41.8751 1.6892 45.5254 1.75325C49.1758 1.81731 52.7973 2.826 55.5303 4.74967L85.7526 26.0225C88.5535 27.994 89.8571 30.5259 89.7431 32.9856L89.7429 32.9856V32.9915Z" stroke="#303030" stroke-opacity="0.2" stroke-width="0.5"/>
<g clip-path="url(#clip0_10669_2463)">
<path d="M59.5389 20.8731L28.4587 20.8731C27.354 20.8731 26.4611 21.3886 26.4611 22.0263L26.4611 39.9692C26.4596 40.275 26.6701 40.5678 27.046 40.7848L42.586 49.7562C43.1568 50.0857 44.0172 50.186 44.7631 50.0066C45.5119 49.8287 45.9978 49.4079 45.9964 48.9406L45.9964 32.151H75.0789C75.6187 32.151 76.1244 32.0255 76.4917 31.8134C76.674 31.7082 76.8237 31.5826 76.9255 31.439C77.2363 31.0084 77.0626 30.5117 76.4918 30.1822L60.9516 21.2107C60.5758 20.9938 60.0686 20.8723 59.5389 20.8731Z" fill="black"/>
</g>
<defs>
<linearGradient id="paint0_linear_10669_2463" x1="45" y1="1.5" x2="210" y2="92.5" gradientUnits="userSpaceOnUse">
<stop stop-color="white"/>
<stop offset="1" stop-color="#999999"/>
</linearGradient>
<linearGradient id="paint1_linear_10669_2463" x1="40.5" y1="23" x2="93.0436" y2="67.7805" gradientUnits="userSpaceOnUse">
<stop stop-color="#F9F9F9"/>
<stop offset="1" stop-color="#939393"/>
</linearGradient>
<clipPath id="clip0_10669_2463">
<rect width="39.1519" height="39.1519" fill="white" transform="matrix(0.866041 -0.499972 0.866041 0.499972 10.0928 30.9976)"/>
</clipPath>
</defs>
</svg>
