<svg width="107" height="32" viewBox="0 0 107 32" fill="none" xmlns="http://www.w3.org/2000/svg">
<rect width="32" height="32" rx="8" fill="#005AFF"/>
<g clip-path="url(#clip0_12521_43165)" filter="url(#filter0_dd_12521_43165)">
<path d="M23.8039 15.5285L16.4709 8.19548C16.2103 7.93484 15.789 7.93484 15.5283 8.19548L8.19533 15.5285C8.07 15.6531 8 15.8225 8 15.9998V23.3328C8 23.6021 8.16199 23.8461 8.41132 23.9488C8.66066 24.0528 8.9473 23.9954 9.13795 23.8041L15.9996 16.9424L22.8613 23.8041C22.9886 23.9315 23.1593 23.9995 23.3326 23.9995C23.4186 23.9995 23.5053 23.9835 23.588 23.9488C23.8373 23.8462 23.9993 23.6022 23.9993 23.3328V15.9998C23.9993 15.8225 23.9293 15.6531 23.8039 15.5285Z" fill="url(#paint0_linear_12521_43165)"/>
</g>
<path d="M50.9517 8.45455H53.1534V18.0213C53.1534 19.0393 52.9143 19.9413 52.4361 20.7273C51.9579 21.5085 51.2855 22.1241 50.419 22.5739C49.5526 23.0189 48.5369 23.2415 47.3722 23.2415C46.2121 23.2415 45.1989 23.0189 44.3324 22.5739C43.4659 22.1241 42.7936 21.5085 42.3153 20.7273C41.8371 19.9413 41.598 19.0393 41.598 18.0213V8.45455H43.7926V17.8438C43.7926 18.5019 43.937 19.0866 44.2259 19.598C44.5194 20.1094 44.9337 20.5118 45.4688 20.8054C46.0038 21.0942 46.6383 21.2386 47.3722 21.2386C48.1108 21.2386 48.7476 21.0942 49.2827 20.8054C49.8224 20.5118 50.2344 20.1094 50.5185 19.598C50.8073 19.0866 50.9517 18.5019 50.9517 17.8438V8.45455ZM55.9737 27.0909V12.0909H58.0475V13.8594H58.2251C58.3482 13.6321 58.5257 13.3693 58.7577 13.071C58.9897 12.7727 59.3117 12.5123 59.7237 12.2898C60.1356 12.0625 60.6801 11.9489 61.3572 11.9489C62.2379 11.9489 63.0238 12.1714 63.7151 12.6165C64.4064 13.0616 64.9486 13.7031 65.3415 14.5412C65.7393 15.3793 65.9381 16.3878 65.9381 17.5668C65.9381 18.7457 65.7416 19.7566 65.3487 20.5994C64.9557 21.4375 64.4159 22.0838 63.7293 22.5384C63.0428 22.9882 62.2592 23.2131 61.3785 23.2131C60.7156 23.2131 60.1735 23.1018 59.7521 22.8793C59.3354 22.6567 59.0087 22.3963 58.7719 22.098C58.5352 21.7997 58.3529 21.5346 58.2251 21.3026H58.0972V27.0909H55.9737ZM58.0546 17.5455C58.0546 18.3125 58.1659 18.9848 58.3884 19.5625C58.611 20.1402 58.9329 20.5923 59.3543 20.919C59.7757 21.241 60.2918 21.402 60.9026 21.402C61.5371 21.402 62.0674 21.2339 62.4935 20.8977C62.9197 20.5568 63.2416 20.0952 63.4594 19.5128C63.682 18.9304 63.7933 18.2746 63.7933 17.5455C63.7933 16.8258 63.6844 16.1795 63.4665 15.6065C63.2535 15.0336 62.9315 14.5814 62.5006 14.25C62.0745 13.9186 61.5418 13.7528 60.9026 13.7528C60.2871 13.7528 59.7663 13.9115 59.3401 14.2287C58.9187 14.5459 58.5991 14.9886 58.3813 15.5568C58.1635 16.125 58.0546 16.7879 58.0546 17.5455ZM72.2012 23.2131C71.3205 23.2131 70.5345 22.9882 69.8433 22.5384C69.1567 22.0838 68.6169 21.4375 68.2239 20.5994C67.8357 19.7566 67.6415 18.7457 67.6415 17.5668C67.6415 16.3878 67.838 15.3793 68.231 14.5412C68.6288 13.7031 69.1733 13.0616 69.8646 12.6165C70.5558 12.1714 71.3395 11.9489 72.2154 11.9489C72.8925 11.9489 73.437 12.0625 73.8489 12.2898C74.2656 12.5123 74.5876 12.7727 74.8148 13.071C75.0469 13.3693 75.2268 13.6321 75.3546 13.8594H75.4825V8.45455H77.606V23H75.5322V21.3026H75.3546C75.2268 21.5346 75.0421 21.7997 74.8006 22.098C74.5639 22.3963 74.2372 22.6567 73.8205 22.8793C73.4039 23.1018 72.8641 23.2131 72.2012 23.2131ZM72.67 21.402C73.2808 21.402 73.7969 21.241 74.2183 20.919C74.6444 20.5923 74.9664 20.1402 75.1842 19.5625C75.4067 18.9848 75.518 18.3125 75.518 17.5455C75.518 16.7879 75.4091 16.125 75.1913 15.5568C74.9735 14.9886 74.6539 14.5459 74.2325 14.2287C73.8111 13.9115 73.2902 13.7528 72.67 13.7528C72.0308 13.7528 71.4981 13.9186 71.0719 14.25C70.6458 14.5814 70.3238 15.0336 70.106 15.6065C69.893 16.1795 69.7864 16.8258 69.7864 17.5455C69.7864 18.2746 69.8953 18.9304 70.1131 19.5128C70.3309 20.0952 70.6529 20.5568 71.079 20.8977C71.5099 21.2339 72.0402 21.402 72.67 21.402ZM80.4369 23V12.0909H82.5605V23H80.4369ZM81.5094 10.4077C81.1401 10.4077 80.8228 10.2846 80.5577 10.0384C80.2973 9.7874 80.167 9.48911 80.167 9.14347C80.167 8.79309 80.2973 8.49479 80.5577 8.24858C80.8228 7.99763 81.1401 7.87216 81.5094 7.87216C81.8787 7.87216 82.1936 7.99763 82.454 8.24858C82.7191 8.49479 82.8517 8.79309 82.8517 9.14347C82.8517 9.48911 82.7191 9.7874 82.454 10.0384C82.1936 10.2846 81.8787 10.4077 81.5094 10.4077ZM94.5498 12.0909L90.5938 23H88.3211L84.358 12.0909H86.6379L89.4006 20.4858H89.5143L92.27 12.0909H94.5498ZM100.676 23.2202C99.6013 23.2202 98.6757 22.9905 97.8991 22.5312C97.1274 22.0672 96.5308 21.4162 96.1094 20.5781C95.6927 19.7353 95.4844 18.7481 95.4844 17.6165C95.4844 16.4991 95.6927 15.5142 96.1094 14.6619C96.5308 13.8097 97.1179 13.1444 97.8707 12.6662C98.6283 12.188 99.5137 11.9489 100.527 11.9489C101.143 11.9489 101.739 12.0507 102.317 12.2543C102.894 12.4579 103.413 12.7775 103.872 13.2131C104.331 13.6487 104.694 14.2145 104.959 14.9105C105.224 15.6018 105.357 16.4422 105.357 17.4318V18.1847H96.6847V16.5938H103.276C103.276 16.035 103.162 15.5402 102.935 15.1094C102.707 14.6738 102.388 14.3305 101.976 14.0795C101.569 13.8286 101.09 13.7031 100.541 13.7031C99.9446 13.7031 99.4238 13.8499 98.9787 14.1435C98.5384 14.4323 98.1974 14.8111 97.956 15.2798C97.7192 15.7438 97.6009 16.2481 97.6009 16.7926V18.0355C97.6009 18.7647 97.7287 19.3849 97.9844 19.8963C98.2448 20.4077 98.607 20.7983 99.071 21.0682C99.535 21.3333 100.077 21.4659 100.697 21.4659C101.1 21.4659 101.467 21.4091 101.798 21.2955C102.13 21.1771 102.416 21.0019 102.658 20.7699C102.899 20.5379 103.084 20.2514 103.212 19.9105L105.222 20.2727C105.061 20.8646 104.772 21.383 104.355 21.8281C103.943 22.2685 103.425 22.6117 102.8 22.858C102.179 23.0994 101.472 23.2202 100.676 23.2202Z" fill="#171717"/>
<defs>
<filter id="filter0_dd_12521_43165" x="6.5" y="7" width="19" height="19" filterUnits="userSpaceOnUse" color-interpolation-filters="sRGB">
<feFlood flood-opacity="0" result="BackgroundImageFix"/>
<feColorMatrix in="SourceAlpha" type="matrix" values="0 0 0 0 0 0 0 0 0 0 0 0 0 0 0 0 0 0 127 0" result="hardAlpha"/>
<feOffset dy="0.5"/>
<feGaussianBlur stdDeviation="0.5"/>
<feColorMatrix type="matrix" values="0 0 0 0 0.0784314 0 0 0 0 0.0823529 0 0 0 0 0.101961 0 0 0 0.06 0"/>
<feBlend mode="normal" in2="BackgroundImageFix" result="effect1_dropShadow_12521_43165"/>
<feColorMatrix in="SourceAlpha" type="matrix" values="0 0 0 0 0 0 0 0 0 0 0 0 0 0 0 0 0 0 127 0" result="hardAlpha"/>
<feOffset dy="0.5"/>
<feGaussianBlur stdDeviation="0.75"/>
<feColorMatrix type="matrix" values="0 0 0 0 0.0784314 0 0 0 0 0.0823529 0 0 0 0 0.101961 0 0 0 0.1 0"/>
<feBlend mode="normal" in2="effect1_dropShadow_12521_43165" result="effect2_dropShadow_12521_43165"/>
<feBlend mode="normal" in="SourceGraphic" in2="effect2_dropShadow_12521_43165" result="shape"/>
</filter>
<linearGradient id="paint0_linear_12521_43165" x1="15.9996" y1="8" x2="15.9996" y2="24" gradientUnits="userSpaceOnUse">
<stop stop-color="white"/>
<stop offset="1" stop-color="#E7F0FF"/>
</linearGradient>
<clipPath id="clip0_12521_43165">
<rect width="16" height="16" fill="white" transform="translate(8 8)"/>
</clipPath>
</defs>
</svg>
