<svg width="48" height="48" viewBox="0 0 48 48" fill="none" xmlns="http://www.w3.org/2000/svg">
<rect width="48" height="48" rx="12" fill="#0091FF"/>
<g clip-path="url(#clip0_12521_28124)" filter="url(#filter0_dd_12521_28124)">
<path d="M26.2073 35.7059L37.2068 24.7064C37.5977 24.3155 37.5977 23.6835 37.2068 23.2925L26.2073 12.293C26.0203 12.105 25.7663 12 25.5003 12L14.5008 12C14.0968 12 13.7308 12.243 13.5768 12.617C13.4208 12.991 13.5069 13.4209 13.7938 13.7069L24.0863 23.9994L13.7938 34.292C13.6028 34.483 13.5008 34.7389 13.5008 34.9989C13.5008 35.1279 13.5248 35.2579 13.5768 35.3819C13.7308 35.7559 14.0967 35.9989 14.5007 35.9989H25.5003C25.7663 35.9989 26.0203 35.8939 26.2073 35.7059Z" fill="white"/>
</g>
<defs>
<filter id="filter0_dd_12521_28124" x="11.25" y="10.5" width="28.5" height="28.5" filterUnits="userSpaceOnUse" color-interpolation-filters="sRGB">
<feFlood flood-opacity="0" result="BackgroundImageFix"/>
<feColorMatrix in="SourceAlpha" type="matrix" values="0 0 0 0 0 0 0 0 0 0 0 0 0 0 0 0 0 0 127 0" result="hardAlpha"/>
<feOffset dy="0.75"/>
<feGaussianBlur stdDeviation="0.75"/>
<feColorMatrix type="matrix" values="0 0 0 0 0.0784314 0 0 0 0 0.0823529 0 0 0 0 0.101961 0 0 0 0.06 0"/>
<feBlend mode="normal" in2="BackgroundImageFix" result="effect1_dropShadow_12521_28124"/>
<feColorMatrix in="SourceAlpha" type="matrix" values="0 0 0 0 0 0 0 0 0 0 0 0 0 0 0 0 0 0 127 0" result="hardAlpha"/>
<feOffset dy="0.75"/>
<feGaussianBlur stdDeviation="1.125"/>
<feColorMatrix type="matrix" values="0 0 0 0 0.0784314 0 0 0 0 0.0823529 0 0 0 0 0.101961 0 0 0 0.1 0"/>
<feBlend mode="normal" in2="effect1_dropShadow_12521_28124" result="effect2_dropShadow_12521_28124"/>
<feBlend mode="normal" in="SourceGraphic" in2="effect2_dropShadow_12521_28124" result="shape"/>
</filter>
<clipPath id="clip0_12521_28124">
<rect width="24" height="24" fill="white" transform="matrix(0 1 -1 0 37.5 12)"/>
</clipPath>
</defs>
</svg>
