<svg width="64" height="64" viewBox="0 0 64 64" fill="none" xmlns="http://www.w3.org/2000/svg">
<rect width="64" height="64" rx="16" fill="url(#paint0_linear_10667_2460)"/>
<g filter="url(#filter0_dd_10667_2460)">
<path d="M15.112 27.4747L28.666 37.332L16.4871 46.1893C15.7038 46.7589 16.1044 47.998 17.0729 47.998H32.1933C33.0387 47.998 33.8622 47.7302 34.5459 47.233L47.0479 38.1407C47.597 37.7414 47.597 36.9226 47.0479 36.5233L33.4939 26.666L45.6729 17.8087C46.4561 17.2391 46.0532 16 45.0847 16L29.9667 16C29.1214 16 28.2977 16.2678 27.6141 16.765L15.112 25.8573C14.5629 26.2566 14.5629 27.0754 15.112 27.4747Z" fill="url(#paint1_linear_10667_2460)"/>
</g>
<defs>
<filter id="filter0_dd_10667_2460" x="11.7002" y="14" width="38.7598" height="37.998" filterUnits="userSpaceOnUse" color-interpolation-filters="sRGB">
<feFlood flood-opacity="0" result="BackgroundImageFix"/>
<feColorMatrix in="SourceAlpha" type="matrix" values="0 0 0 0 0 0 0 0 0 0 0 0 0 0 0 0 0 0 127 0" result="hardAlpha"/>
<feOffset dy="1"/>
<feGaussianBlur stdDeviation="1"/>
<feColorMatrix type="matrix" values="0 0 0 0 0.0784314 0 0 0 0 0.0823529 0 0 0 0 0.101961 0 0 0 0.06 0"/>
<feBlend mode="normal" in2="BackgroundImageFix" result="effect1_dropShadow_10667_2460"/>
<feColorMatrix in="SourceAlpha" type="matrix" values="0 0 0 0 0 0 0 0 0 0 0 0 0 0 0 0 0 0 127 0" result="hardAlpha"/>
<feOffset dy="1"/>
<feGaussianBlur stdDeviation="1.5"/>
<feColorMatrix type="matrix" values="0 0 0 0 0.0784314 0 0 0 0 0.0823529 0 0 0 0 0.101961 0 0 0 0.1 0"/>
<feBlend mode="normal" in2="effect1_dropShadow_10667_2460" result="effect2_dropShadow_10667_2460"/>
<feBlend mode="normal" in="SourceGraphic" in2="effect2_dropShadow_10667_2460" result="shape"/>
</filter>
<linearGradient id="paint0_linear_10667_2460" x1="32" y1="2.5" x2="32" y2="64" gradientUnits="userSpaceOnUse">
<stop stop-color="#8400FF"/>
<stop offset="0.930215" stop-color="#6F06D2"/>
<stop offset="1" stop-color="#9E35FF"/>
</linearGradient>
<linearGradient id="paint1_linear_10667_2460" x1="31.08" y1="16" x2="31.08" y2="47.998" gradientUnits="userSpaceOnUse">
<stop stop-color="white"/>
<stop offset="1" stop-color="#E7CDFF"/>
</linearGradient>
</defs>
</svg>
