<svg width="20" height="19" viewBox="0 0 20 19" fill="none" xmlns="http://www.w3.org/2000/svg">
<g id="up 1" clip-path="url(#clip0_41_26869)" filter="url(#filter0_dd_41_26869)">
<g id="Group">
<g id="Group_2">
<path id="Vector" d="M17.8039 8.52848L10.4709 1.19548C10.2103 0.934839 9.78898 0.934839 9.52833 1.19548L2.19533 8.52848C2.07 8.65313 2 8.82247 2 8.99981V16.3328C2 16.6021 2.16199 16.8461 2.41132 16.9488C2.66066 17.0528 2.9473 16.9954 3.13795 16.8041L9.99963 9.94245L16.8613 16.8041C16.9886 16.9315 17.1593 16.9995 17.3326 16.9995C17.4186 16.9995 17.5053 16.9835 17.588 16.9488C17.8373 16.8462 17.9993 16.6022 17.9993 16.3328V8.99977C17.9993 8.82247 17.9293 8.65313 17.8039 8.52848Z" fill="url(#paint0_linear_41_26869)"/>
</g>
</g>
</g>
<defs>
<filter id="filter0_dd_41_26869" x="0.5" y="0" width="19" height="19" filterUnits="userSpaceOnUse" color-interpolation-filters="sRGB">
<feFlood flood-opacity="0" result="BackgroundImageFix"/>
<feColorMatrix in="SourceAlpha" type="matrix" values="0 0 0 0 0 0 0 0 0 0 0 0 0 0 0 0 0 0 127 0" result="hardAlpha"/>
<feOffset dy="0.5"/>
<feGaussianBlur stdDeviation="0.5"/>
<feColorMatrix type="matrix" values="0 0 0 0 0.0784314 0 0 0 0 0.0823529 0 0 0 0 0.101961 0 0 0 0.06 0"/>
<feBlend mode="normal" in2="BackgroundImageFix" result="effect1_dropShadow_41_26869"/>
<feColorMatrix in="SourceAlpha" type="matrix" values="0 0 0 0 0 0 0 0 0 0 0 0 0 0 0 0 0 0 127 0" result="hardAlpha"/>
<feOffset dy="0.5"/>
<feGaussianBlur stdDeviation="0.75"/>
<feColorMatrix type="matrix" values="0 0 0 0 0.0784314 0 0 0 0 0.0823529 0 0 0 0 0.101961 0 0 0 0.1 0"/>
<feBlend mode="normal" in2="effect1_dropShadow_41_26869" result="effect2_dropShadow_41_26869"/>
<feBlend mode="normal" in="SourceGraphic" in2="effect2_dropShadow_41_26869" result="shape"/>
</filter>
<linearGradient id="paint0_linear_41_26869" x1="9.99964" y1="1" x2="9.99964" y2="17" gradientUnits="userSpaceOnUse">
<stop stop-color="white"/>
<stop offset="1" stop-color="#E7F0FF"/>
</linearGradient>
<clipPath id="clip0_41_26869">
<rect width="16" height="16" fill="white" transform="translate(2 1)"/>
</clipPath>
</defs>
</svg>
