<svg width="32" height="32" viewBox="0 0 32 32" fill="none" xmlns="http://www.w3.org/2000/svg">
<rect width="32" height="32" rx="8" fill="#005AFF"/>
<g clip-path="url(#clip0_12521_13414)" filter="url(#filter0_dd_12521_13414)">
<path d="M23.8039 15.5285L16.4709 8.19548C16.2103 7.93484 15.789 7.93484 15.5283 8.19548L8.19533 15.5285C8.07 15.6531 8 15.8225 8 15.9998V23.3328C8 23.6021 8.16199 23.8461 8.41132 23.9488C8.66066 24.0528 8.9473 23.9954 9.13795 23.8041L15.9996 16.9424L22.8613 23.8041C22.9886 23.9315 23.1593 23.9995 23.3326 23.9995C23.4186 23.9995 23.5053 23.9835 23.588 23.9488C23.8373 23.8462 23.9993 23.6022 23.9993 23.3328V15.9998C23.9993 15.8225 23.9293 15.6531 23.8039 15.5285Z" fill="url(#paint0_linear_12521_13414)"/>
</g>
<defs>
<filter id="filter0_dd_12521_13414" x="6.5" y="7" width="19" height="19" filterUnits="userSpaceOnUse" color-interpolation-filters="sRGB">
<feFlood flood-opacity="0" result="BackgroundImageFix"/>
<feColorMatrix in="SourceAlpha" type="matrix" values="0 0 0 0 0 0 0 0 0 0 0 0 0 0 0 0 0 0 127 0" result="hardAlpha"/>
<feOffset dy="0.5"/>
<feGaussianBlur stdDeviation="0.5"/>
<feColorMatrix type="matrix" values="0 0 0 0 0.0784314 0 0 0 0 0.0823529 0 0 0 0 0.101961 0 0 0 0.06 0"/>
<feBlend mode="normal" in2="BackgroundImageFix" result="effect1_dropShadow_12521_13414"/>
<feColorMatrix in="SourceAlpha" type="matrix" values="0 0 0 0 0 0 0 0 0 0 0 0 0 0 0 0 0 0 127 0" result="hardAlpha"/>
<feOffset dy="0.5"/>
<feGaussianBlur stdDeviation="0.75"/>
<feColorMatrix type="matrix" values="0 0 0 0 0.0784314 0 0 0 0 0.0823529 0 0 0 0 0.101961 0 0 0 0.1 0"/>
<feBlend mode="normal" in2="effect1_dropShadow_12521_13414" result="effect2_dropShadow_12521_13414"/>
<feBlend mode="normal" in="SourceGraphic" in2="effect2_dropShadow_12521_13414" result="shape"/>
</filter>
<linearGradient id="paint0_linear_12521_13414" x1="15.9996" y1="8" x2="15.9996" y2="24" gradientUnits="userSpaceOnUse">
<stop stop-color="white"/>
<stop offset="1" stop-color="#E7F0FF"/>
</linearGradient>
<clipPath id="clip0_12521_13414">
<rect width="16" height="16" fill="white" transform="translate(8 8)"/>
</clipPath>
</defs>
</svg>
