<svg width="25" height="25" viewBox="0 0 25 25" fill="none" xmlns="http://www.w3.org/2000/svg">
<g id="alarm-warning">
<path id="Vector" d="M4.3335 20.3682V14.3682C4.3335 9.94988 7.91522 6.36816 12.3335 6.36816C16.7518 6.36816 20.3335 9.94988 20.3335 14.3682V20.3682H21.3335V22.3682H3.3335V20.3682H4.3335ZM6.3335 20.3682H18.3335V14.3682C18.3335 11.0545 15.6472 8.36816 12.3335 8.36816C9.01979 8.36816 6.3335 11.0545 6.3335 14.3682V20.3682ZM11.3335 2.36816H13.3335V5.36816H11.3335V2.36816ZM20.1117 5.17577L21.5259 6.58999L19.4046 8.71131L17.9904 7.29709L20.1117 5.17577ZM3.14111 6.58999L4.55532 5.17577L6.67664 7.29709L5.26243 8.71131L3.14111 6.58999ZM7.3335 14.3682C7.3335 11.6068 9.57207 9.36816 12.3335 9.36816V11.3682C10.6767 11.3682 9.3335 12.7113 9.3335 14.3682H7.3335Z" fill="#1380ED"/>
</g>
</svg>
