<svg width="25" height="25" viewBox="0 0 25 25" fill="none" xmlns="http://www.w3.org/2000/svg">
<g id="key">
<path id="Vector" d="M13.5835 13.3682C13.1075 16.2059 10.6395 18.3682 7.6665 18.3682C4.35279 18.3682 1.6665 15.6819 1.6665 12.3682C1.6665 9.05445 4.35279 6.36816 7.6665 6.36816C10.6395 6.36816 13.1075 8.53045 13.5835 11.3682H23.6665V13.3682H21.6665V17.3682H19.6665V13.3682H17.6665V17.3682H15.6665V13.3682H13.5835ZM7.6665 16.3682C9.87564 16.3682 11.6665 14.5773 11.6665 12.3682C11.6665 10.159 9.87564 8.36816 7.6665 8.36816C5.45736 8.36816 3.6665 10.159 3.6665 12.3682C3.6665 14.5773 5.45736 16.3682 7.6665 16.3682Z" fill="#1380ED"/>
</g>
</svg>
