<svg width="24" height="25" viewBox="0 0 24 25" fill="none" xmlns="http://www.w3.org/2000/svg">
<g id="search">
<path id="Vector" d="M18.031 17.3531L22.3137 21.6358L20.8995 23.05L16.6168 18.7673C15.0769 19.9993 13.124 20.7363 11 20.7363C6.032 20.7363 2 16.7043 2 11.7363C2 6.76833 6.032 2.73633 11 2.73633C15.968 2.73633 20 6.76833 20 11.7363C20 13.8603 19.263 15.8132 18.031 17.3531ZM16.0247 16.6111C17.2475 15.3509 18 13.6319 18 11.7363C18 7.86883 14.8675 4.73633 11 4.73633C7.1325 4.73633 4 7.86883 4 11.7363C4 15.6038 7.1325 18.7363 11 18.7363C12.8956 18.7363 14.6146 17.9838 15.8748 16.761L16.0247 16.6111Z" fill="#1380ED"/>
</g>
</svg>
