<svg width="24" height="25" viewBox="0 0 24 25" fill="none" xmlns="http://www.w3.org/2000/svg">
<g id="shield-flash">
<path id="Vector" d="M3.78307 3.19414L12 1.36816L20.2169 3.19414C20.6745 3.29582 21 3.70163 21 4.17033V14.1571C21 16.1632 19.9974 18.0366 18.3282 19.1494L12 23.3682L5.6718 19.1494C4.00261 18.0366 3 16.1632 3 14.1571V4.17033C3 3.70163 3.32553 3.29582 3.78307 3.19414ZM5 4.9725V14.1571C5 15.4945 5.6684 16.7434 6.7812 17.4853L12 20.9645L17.2188 17.4853C18.3316 16.7434 19 15.4945 19 14.1571V4.9725L12 3.41695L5 4.9725ZM13 10.3682H16L11 17.3682V12.3682H8L13 5.36816V10.3682Z" fill="#1380ED"/>
</g>
</svg>
