<svg width="20" height="20" viewBox="0 0 20 20" fill="none" xmlns="http://www.w3.org/2000/svg">
<g id="checkbox-multiple">
<path id="Vector" d="M5.83251 5.83317V2.49984C5.83251 2.0396 6.2056 1.6665 6.66584 1.6665H17.4992C17.9594 1.6665 18.3325 2.0396 18.3325 2.49984V13.3332C18.3325 13.7934 17.9594 14.1665 17.4992 14.1665H14.166V17.4936C14.166 17.9573 13.7918 18.3332 13.3264 18.3332H2.50542C2.04173 18.3332 1.66602 17.9591 1.66602 17.4936L1.66832 6.67274C1.66842 6.20906 2.04252 5.83317 2.50789 5.83317H5.83251ZM7.49917 5.83317H13.3266C13.7902 5.83317 14.166 6.20727 14.166 6.67274V12.4998H16.6658V3.33317H7.49917V5.83317ZM12.4993 7.49984H3.33481L3.33286 16.6665H12.4993V7.49984ZM7.0847 14.9998L4.13842 12.0536L5.31693 10.8751L7.0847 12.6428L10.6203 9.10725L11.7988 10.2858L7.0847 14.9998Z" fill="#303030" fill-opacity="0.64"/>
</g>
</svg>
