<svg width="20" height="21" viewBox="0 0 20 21" fill="none" xmlns="http://www.w3.org/2000/svg">
<g id="github-fill">
<path id="Vector" d="M10.0008 2.40332C5.39665 2.40332 1.66748 6.13249 1.66748 10.7367C1.66748 14.4242 4.0529 17.5387 7.3654 18.6429C7.78206 18.7158 7.93831 18.4658 7.93831 18.2471C7.93831 18.0492 7.9279 17.3929 7.9279 16.695C5.83415 17.0804 5.29248 16.1846 5.12581 15.7158C5.03206 15.4762 4.62581 14.7367 4.27165 14.5387C3.97998 14.3825 3.56331 13.9971 4.26123 13.9867C4.91748 13.9762 5.38623 14.5908 5.54248 14.8408C6.29248 16.1012 7.4904 15.7471 7.96956 15.5283C8.04248 14.9867 8.26123 14.6221 8.50083 14.4137C6.64665 14.2054 4.70915 13.4867 4.70915 10.2992C4.70915 9.3929 5.03206 8.6429 5.56331 8.05957C5.47998 7.85124 5.18831 6.99707 5.64665 5.85124C5.64665 5.85124 6.34456 5.63249 7.93831 6.7054C8.605 6.5179 9.31333 6.42415 10.0217 6.42415C10.73 6.42415 11.4383 6.5179 12.105 6.7054C13.6987 5.62207 14.3967 5.85124 14.3967 5.85124C14.855 6.99707 14.5633 7.85124 14.48 8.05957C15.0112 8.6429 15.3342 9.38249 15.3342 10.2992C15.3342 13.4971 13.3862 14.2054 11.5321 14.4137C11.8342 14.6742 12.0946 15.1742 12.0946 15.9554C12.0946 17.07 12.0842 17.9658 12.0842 18.2471C12.0842 18.4658 12.2404 18.7262 12.6571 18.6429C16.0492 17.4977 18.3332 14.3169 18.3342 10.7367C18.3342 6.13249 14.605 2.40332 10.0008 2.40332Z" fill="#1380ED"/>
</g>
</svg>
