<svg width="20" height="21" viewBox="0 0 20 21" fill="none" xmlns="http://www.w3.org/2000/svg">
<g id="instagram-fill">
<path id="Vector" d="M10.8567 2.40332C11.7946 2.40487 12.2698 2.40984 12.6805 2.42206L12.8422 2.42735C13.0291 2.43399 13.2134 2.44232 13.4357 2.45274C14.3224 2.49371 14.9273 2.63399 15.4586 2.84024C16.0078 3.05205 16.4717 3.33815 16.9349 3.80135C17.3974 4.26455 17.6836 4.72982 17.8961 5.27774C18.1016 5.8083 18.2419 6.41385 18.2836 7.30065C18.2935 7.52288 18.3015 7.70721 18.3081 7.89408L18.3133 8.05582C18.3255 8.46644 18.3311 8.94176 18.3328 9.87963L18.3335 10.501C18.3336 10.5769 18.3336 10.6552 18.3336 10.736L18.3335 10.9711L18.333 11.5925C18.3314 12.5304 18.3265 13.0057 18.3142 13.4163L18.3089 13.578C18.3023 13.765 18.294 13.9493 18.2836 14.1715C18.2426 15.0583 18.1016 15.6631 17.8961 16.1944C17.6842 16.7437 17.3974 17.2076 16.9349 17.6708C16.4717 18.1333 16.0057 18.4194 15.4586 18.6319C14.9273 18.8375 14.3224 18.9777 13.4357 19.0194C13.2134 19.0293 13.0291 19.0374 12.8422 19.0439L12.6805 19.0491C12.2698 19.0614 11.7946 19.0669 10.8567 19.0687L10.2353 19.0694C10.1594 19.0694 10.0811 19.0694 10.0002 19.0694H9.76516L9.14375 19.0688C8.20591 19.0673 7.7306 19.0623 7.31997 19.05L7.15824 19.0448C6.97136 19.0381 6.78703 19.0298 6.56481 19.0194C5.67801 18.9785 5.07384 18.8375 4.5419 18.6319C3.99328 18.4201 3.5287 18.1333 3.06551 17.6708C2.60231 17.2076 2.3169 16.7416 2.1044 16.1944C1.89815 15.6631 1.75856 15.0583 1.7169 14.1715C1.707 13.9493 1.69892 13.765 1.69238 13.578L1.68714 13.4163C1.67495 13.0057 1.66939 12.5304 1.66759 11.5925L1.66748 9.87963C1.66903 8.94176 1.67399 8.46644 1.68621 8.05582L1.69151 7.89408C1.69815 7.70721 1.70648 7.52288 1.7169 7.30065C1.75786 6.41315 1.89815 5.80899 2.1044 5.27774C2.3162 4.72913 2.60231 4.26455 3.06551 3.80135C3.5287 3.33815 3.99398 3.05274 4.5419 2.84024C5.07315 2.63399 5.67731 2.4944 6.56481 2.45274C6.78703 2.44285 6.97136 2.43477 7.15824 2.42823L7.31997 2.42299C7.7306 2.41079 8.20591 2.40523 9.14375 2.40343L10.8567 2.40332ZM10.0002 6.5694C7.69781 6.5694 5.83356 8.43568 5.83356 10.736C5.83356 13.0385 7.69984 14.9027 10.0002 14.9027C12.3027 14.9027 14.1669 13.0365 14.1669 10.736C14.1669 8.43365 12.3006 6.5694 10.0002 6.5694ZM10.0002 8.23607C11.381 8.23607 12.5002 9.35496 12.5002 10.736C12.5002 12.1168 11.3813 13.236 10.0002 13.236C8.6195 13.236 7.50023 12.1172 7.50023 10.736C7.50023 9.35529 8.61908 8.23607 10.0002 8.23607ZM14.3752 5.3194C13.8008 5.3194 13.3336 5.786 13.3336 6.36036C13.3336 6.93474 13.8002 7.40205 14.3752 7.40205C14.9496 7.40205 15.4169 6.93546 15.4169 6.36036C15.4169 5.786 14.9488 5.31869 14.3752 5.3194Z" fill="#1380ED"/>
</g>
</svg>
