<svg width="20" height="21" viewBox="0 0 20 21" fill="none" xmlns="http://www.w3.org/2000/svg">
<g id="telegram-fill">
<path id="Vector" d="M18.3332 10.7367C18.3332 15.339 14.6022 19.07 9.99984 19.07C5.39746 19.07 1.6665 15.339 1.6665 10.7367C1.6665 6.13428 5.39746 2.40332 9.99984 2.40332C14.6022 2.40332 18.3332 6.13428 18.3332 10.7367ZM10.2985 8.55537C9.48792 8.8925 7.868 9.59032 5.43867 10.6487C5.04418 10.8056 4.83754 10.9591 4.81872 11.1091C4.78693 11.3627 5.10451 11.4626 5.53699 11.5986C5.59581 11.6171 5.65677 11.6362 5.71925 11.6566C6.14474 11.7948 6.7171 11.9567 7.01464 11.9631C7.28454 11.9689 7.58578 11.8577 7.91835 11.6292C10.1882 10.0971 11.3598 9.32265 11.4334 9.30599C11.4853 9.29415 11.5573 9.2794 11.6059 9.32265C11.6547 9.36599 11.6498 9.44799 11.6448 9.46999C11.6133 9.60415 10.3666 10.7632 9.7215 11.3629C9.52909 11.5417 9.34159 11.7244 9.15259 11.9066C8.75734 12.2876 8.46092 12.5733 9.169 13.04C9.88684 13.5131 10.6101 13.9852 11.3102 14.4842C11.6554 14.7304 11.9657 14.9516 12.3488 14.9163C12.5716 14.8958 12.8016 14.6864 12.9183 14.0619C13.1944 12.5861 13.7371 9.3884 13.8625 8.07068C13.8735 7.95524 13.8597 7.80749 13.8486 7.74263C13.8375 7.67777 13.8143 7.58535 13.73 7.51695C13.6301 7.43593 13.476 7.41885 13.4071 7.42006C13.0936 7.42559 12.6128 7.5928 10.2985 8.55537Z" fill="#1380ED"/>
</g>
</svg>
