<svg width="20" height="20" viewBox="0 0 20 20" fill="none" xmlns="http://www.w3.org/2000/svg">
<g id="telegram">
<path id="Vector" d="M16.666 9.99984C16.666 13.6818 13.6813 16.6665 9.99935 16.6665C6.31745 16.6665 3.33268 13.6818 3.33268 9.99984C3.33268 6.31794 6.31745 3.33317 9.99935 3.33317C13.6813 3.33317 16.666 6.31794 16.666 9.99984ZM9.99935 18.3332C14.6017 18.3332 18.3327 14.6022 18.3327 9.99984C18.3327 5.39746 14.6017 1.6665 9.99935 1.6665C5.39697 1.6665 1.66602 5.39746 1.66602 9.99984C1.66602 14.6022 5.39697 18.3332 9.99935 18.3332ZM10.298 7.81855C9.48743 8.15569 7.86752 8.8535 5.43818 9.91192C5.04369 10.0688 4.83705 10.2223 4.81823 10.3723C4.78644 10.6259 5.10402 10.7258 5.5365 10.8618C5.59532 10.8803 5.65628 10.8994 5.71877 10.9198C6.14425 11.058 6.71661 11.2198 7.01415 11.2263C7.28405 11.2321 7.58529 11.1208 7.91787 10.8924C10.1877 9.36025 11.3593 8.58584 11.4329 8.56917C11.4848 8.55734 11.5568 8.54259 11.6054 8.58584C11.6542 8.62917 11.6493 8.71117 11.6443 8.73317C11.6128 8.86734 10.3661 10.0263 9.72093 10.6261C9.5286 10.8049 9.3411 10.9876 9.1521 11.1698C8.75685 11.5508 8.46043 11.8365 9.16852 12.3032C9.88635 12.7763 10.6096 13.2483 11.3097 13.7474C11.6549 13.9936 11.9652 14.2148 12.3483 14.1795C12.5711 14.159 12.8011 13.9496 12.9178 13.3251C13.1939 11.8493 13.7366 8.65159 13.862 7.33386C13.873 7.21842 13.8592 7.07067 13.8481 7.00581C13.837 6.94095 13.8138 6.84854 13.7295 6.78013C13.6296 6.69911 13.4755 6.68203 13.4066 6.68325C13.0931 6.68877 12.6123 6.85598 10.298 7.81855Z" fill="#1380ED"/>
</g>
</svg>
