<svg width="20" height="21" viewBox="0 0 20 21" fill="none" xmlns="http://www.w3.org/2000/svg">
<g id="threads">
<path id="Vector" d="M10.1531 1.91113H10.152C7.57526 1.92898 5.58379 2.79705 4.2449 4.49907C3.055 6.01172 2.44576 8.12297 2.42529 10.7417V10.7428C2.44576 13.3617 3.05504 15.4607 4.2449 16.9732C5.58385 18.6752 7.58563 19.5433 10.1623 19.5612H10.1633C12.4535 19.5452 14.0776 18.9447 15.4156 17.6079C17.1697 15.8555 17.1175 13.6567 16.5382 12.3053C16.0971 11.2771 15.2259 10.4542 14.0586 9.94242C13.9077 7.45554 12.5082 6.00415 10.2082 5.98946C8.84941 5.98107 7.62343 6.58915 6.87253 7.72853L8.25214 8.67492C8.69624 8.00115 9.39924 7.67613 10.1977 7.68351C11.3538 7.69088 12.1137 8.32873 12.3269 9.44775C11.6835 9.34708 10.992 9.31783 10.2565 9.36C8.05718 9.48667 6.61674 10.7868 6.71279 12.5897C6.81325 14.4745 8.63933 15.5015 10.3732 15.4068C12.4501 15.293 13.6842 13.7603 13.977 11.8057C14.4579 12.1172 14.8127 12.5147 15.0137 12.9834C15.3801 13.8378 15.4033 15.247 14.2507 16.3987C13.2367 17.4117 12.0177 17.8532 10.1577 17.867C8.09539 17.8517 6.54764 17.191 5.54311 15.914C4.59993 14.715 4.10718 12.9762 4.08872 10.7362C4.10718 8.49609 4.59993 6.75724 5.54311 5.55827C6.54764 4.28127 8.09536 3.62063 10.1577 3.60519C12.2351 3.62075 13.8108 4.28464 14.8547 5.56881C15.4303 6.27712 15.791 7.12383 16.0317 7.99773L17.6482 7.56647C17.3458 6.45197 16.868 5.38909 16.136 4.48854C14.7583 2.79365 12.7348 1.92905 10.1531 1.91113ZM10.3505 11.0512C11.0872 11.0087 11.7701 11.0555 12.3769 11.1814C12.2597 12.4957 11.7159 13.6365 10.2836 13.7152C9.35699 13.7673 8.41941 13.3538 8.37383 12.4977C8.33991 11.8612 8.81066 11.1399 10.3505 11.0512Z" fill="#1380ED"/>
</g>
</svg>
