<svg width="20" height="21" viewBox="0 0 20 21" fill="none" xmlns="http://www.w3.org/2000/svg">
<g id="whatsapp-fill">
<path id="Vector" d="M10.0008 2.40332C14.6032 2.40332 18.3342 6.13428 18.3342 10.7367C18.3342 15.339 14.6032 19.07 10.0008 19.07C8.47258 19.07 7.04042 18.6587 5.80905 17.9406L1.67096 19.07L2.7976 14.9296C2.07911 13.698 1.66748 12.2654 1.66748 10.7367C1.66748 6.13428 5.39844 2.40332 10.0008 2.40332ZM6.9936 6.82693C6.88577 6.8345 6.78006 6.86084 6.68381 6.91008C6.6116 6.94702 6.54456 7.00041 6.43924 7.09987C6.33978 7.19378 6.28214 7.2758 6.22141 7.35487C5.91332 7.75599 5.74774 8.24836 5.75081 8.75414C5.75249 9.16299 5.85869 9.56032 6.02641 9.93132C6.36651 10.6837 6.9274 11.479 7.66828 12.2166C7.84625 12.3937 8.02061 12.5728 8.20861 12.7383C9.12816 13.548 10.224 14.1318 11.4089 14.4435C11.4089 14.4435 11.8756 14.5152 11.8824 14.5156C12.037 14.5239 12.1913 14.5127 12.3461 14.5048C12.5888 14.4923 12.8258 14.4267 13.0403 14.3124C13.1782 14.239 13.2435 14.2025 13.3592 14.1295C13.3592 14.1295 13.3947 14.1055 13.4632 14.0545C13.5757 13.9707 13.6452 13.9117 13.7388 13.8145C13.8078 13.7428 13.8672 13.6582 13.913 13.5627C13.9782 13.4267 14.0437 13.1672 14.0698 12.9516C14.0897 12.7869 14.0837 12.6969 14.0816 12.6412C14.078 12.5515 14.0039 12.4592 13.9227 12.4201L13.4382 12.2022C13.4382 12.2022 12.7136 11.8869 12.2704 11.6847C12.2242 11.6637 12.1737 11.6539 12.123 11.6508C12.0118 11.644 11.8872 11.673 11.808 11.7565C11.8038 11.7548 11.7487 11.8025 11.1457 12.5329C11.1125 12.5727 11.0346 12.6591 10.8998 12.651C10.8795 12.6496 10.8592 12.6467 10.8395 12.6415C10.7849 12.6271 10.7317 12.6081 10.6797 12.5861C10.5767 12.5423 10.5405 12.5257 10.4701 12.4954C9.989 12.2852 9.5475 12.0041 9.15725 11.66C9.05258 11.5678 8.95525 11.4686 8.85491 11.3713C8.50475 11.0319 8.21807 10.6709 8.00481 10.3148C7.99316 10.2954 7.97522 10.2673 7.9559 10.2359C7.92101 10.1792 7.88252 10.1117 7.87046 10.0653C7.83948 9.94274 7.92166 9.84424 7.92166 9.84424C7.92166 9.84424 8.12449 9.62249 8.21873 9.5019C8.3094 9.38582 8.38766 9.27232 8.4375 9.1914C8.53566 9.0336 8.56675 8.8705 8.51516 8.74468C8.28136 8.1747 8.04015 7.60779 7.79155 7.0441C7.74248 6.93286 7.59654 6.85204 7.46382 6.83671C7.41887 6.83152 7.37396 6.8263 7.32882 6.82334C7.21711 6.81789 7.10516 6.81909 6.9936 6.82693Z" fill="#1380ED"/>
</g>
</svg>
