<svg width="20" height="21" viewBox="0 0 20 21" fill="none" xmlns="http://www.w3.org/2000/svg">
<g id="youtube-fill">
<path id="Vector" d="M10.2031 4.06934C10.6482 4.07179 11.7618 4.08255 12.9449 4.12994L13.3644 4.14824C14.5557 4.20464 15.7459 4.30099 16.3363 4.46559C17.1237 4.68679 17.7426 5.33225 17.9518 6.15044C18.2848 7.44968 18.3265 9.9855 18.3317 10.5992L18.3324 10.7263V10.7353C18.3324 10.7353 18.3324 10.7383 18.3324 10.7443L18.3317 10.8714C18.3265 11.4851 18.2848 14.0209 17.9518 15.3202C17.7397 16.1413 17.1208 16.7868 16.3363 17.005C15.7459 17.1696 14.5557 17.2659 13.3644 17.3223L12.9449 17.3406C11.7618 17.388 10.6482 17.3988 10.2031 17.4013L10.0078 17.4019H9.99909C9.99909 17.4019 9.99617 17.4019 9.99042 17.4019L9.79525 17.4013C8.85325 17.3961 4.9146 17.3535 3.66193 17.005C2.8745 16.7838 2.2556 16.1383 2.0464 15.3202C1.71334 14.0209 1.6717 11.4851 1.6665 10.8714V10.5992C1.6717 9.9855 1.71334 7.44968 2.0464 6.15044C2.2585 5.32922 2.8774 4.68377 3.66193 4.46559C4.9146 4.11703 8.85325 4.07452 9.79525 4.06934H10.2031ZM8.33243 7.81862V13.6519L13.3324 10.7353L8.33243 7.81862Z" fill="#1380ED"/>
</g>
</svg>
