<svg width="25" height="25" viewBox="0 0 25 25" fill="none" xmlns="http://www.w3.org/2000/svg">
<g id="alarm-warning">
<path id="Vector" d="M4.33301 20.7681V14.7681C4.33301 10.3498 7.91473 6.76807 12.333 6.76807C16.7513 6.76807 20.333 10.3498 20.333 14.7681V20.7681H21.333V22.7681H3.33301V20.7681H4.33301ZM6.33301 20.7681H18.333V14.7681C18.333 11.4544 15.6467 8.76807 12.333 8.76807C9.0193 8.76807 6.33301 11.4544 6.33301 14.7681V20.7681ZM11.333 2.76807H13.333V5.76807H11.333V2.76807ZM20.1112 5.57568L21.5254 6.9899L19.4041 9.11122L17.9899 7.697L20.1112 5.57568ZM3.14062 6.9899L4.55483 5.57568L6.67616 7.697L5.26194 9.11122L3.14062 6.9899ZM7.33301 14.7681C7.33301 12.0067 9.57158 9.76807 12.333 9.76807V11.7681C10.6762 11.7681 9.33301 13.1112 9.33301 14.7681H7.33301Z" fill="#1380ED"/>
</g>
</svg>
