<svg width="25" height="25" viewBox="0 0 25 25" fill="none" xmlns="http://www.w3.org/2000/svg">
<g id="checkbox-multiple">
<path id="Vector" d="M7.66678 7.76807V3.76807C7.66678 3.21579 8.11449 2.76807 8.66678 2.76807H21.6668C22.2191 2.76807 22.6668 3.21579 22.6668 3.76807V16.7681C22.6668 17.3204 22.2191 17.7681 21.6668 17.7681H17.667V21.7606C17.667 22.317 17.218 22.7681 16.6595 22.7681H3.67427C3.11785 22.7681 2.66699 22.3192 2.66699 21.7606L2.66975 8.77555C2.66987 8.21914 3.11879 7.76807 3.67724 7.76807H7.66678ZM9.66678 7.76807H16.6597C17.216 7.76807 17.667 8.21699 17.667 8.77555V15.7681H20.6668V4.76807H9.66678V7.76807ZM15.667 9.76807H4.66954L4.6672 20.7681H15.667V9.76807ZM9.16941 18.7681L5.63388 15.2326L7.04809 13.8184L9.16941 15.9397L13.4121 11.697L14.8263 13.1112L9.16941 18.7681Z" fill="#1380ED"/>
</g>
</svg>
