<svg width="24" height="25" viewBox="0 0 24 25" fill="none" xmlns="http://www.w3.org/2000/svg">
<g id="file-copy-2">
<path id="Vector" d="M6.9998 6.76807V3.76807C6.9998 3.21579 7.44752 2.76807 7.9998 2.76807H19.9998C20.5521 2.76807 20.9998 3.21579 20.9998 3.76807V17.7681C20.9998 18.3204 20.5521 18.7681 19.9998 18.7681H16.9998V21.7672C16.9998 22.32 16.5499 22.7681 15.993 22.7681H4.00666C3.45059 22.7681 3 22.3235 3 21.7672L3.0026 7.76894C3.0027 7.21618 3.45264 6.76807 4.00942 6.76807H6.9998ZM5.00242 8.76807L5.00019 20.7681H14.9998V8.76807H5.00242ZM8.9998 6.76807H16.9998V16.7681H18.9998V4.76807H8.9998V6.76807ZM7 11.7681H13V13.7681H7V11.7681ZM7 15.7681H13V17.7681H7V15.7681Z" fill="#1380ED"/>
</g>
</svg>
