<svg width="25" height="25" viewBox="0 0 25 25" fill="none" xmlns="http://www.w3.org/2000/svg">
<g id="key">
<path id="Vector" d="M13.584 13.7681C13.108 16.6058 10.64 18.7681 7.66699 18.7681C4.35328 18.7681 1.66699 16.0818 1.66699 12.7681C1.66699 9.45436 4.35328 6.76807 7.66699 6.76807C10.64 6.76807 13.108 8.93036 13.584 11.7681H23.667V13.7681H21.667V17.7681H19.667V13.7681H17.667V17.7681H15.667V13.7681H13.584ZM7.66699 16.7681C9.87613 16.7681 11.667 14.9772 11.667 12.7681C11.667 10.5589 9.87613 8.76807 7.66699 8.76807C5.45785 8.76807 3.66699 10.5589 3.66699 12.7681C3.66699 14.9772 5.45785 16.7681 7.66699 16.7681Z" fill="#1380ED"/>
</g>
</svg>
