<svg width="25" height="25" viewBox="0 0 25 25" fill="none" xmlns="http://www.w3.org/2000/svg">
<g id="link">
<path id="Vector" d="M19.0313 16.3034L17.6171 14.8892L19.0313 13.475C20.9839 11.5224 20.9839 8.35655 19.0313 6.40393C17.0787 4.4513 13.9128 4.4513 11.9602 6.40393L10.546 7.81814L9.13176 6.40393L10.546 4.98971C13.2797 2.25604 17.7118 2.25604 20.4455 4.98971C23.1792 7.72338 23.1792 12.1555 20.4455 14.8892L19.0313 16.3034ZM16.2028 19.1319L14.7886 20.5461C12.055 23.2797 7.62279 23.2797 4.88912 20.5461C2.15545 17.8124 2.15545 13.3802 4.88912 10.6466L6.30333 9.23235L7.71755 10.6466L6.30333 12.0608C4.35071 14.0134 4.35071 17.1792 6.30333 19.1319C8.25595 21.0845 11.4218 21.0845 13.3744 19.1319L14.7886 17.7176L16.2028 19.1319ZM15.4957 8.52525L16.91 9.93946L9.83887 17.0105L8.42465 15.5963L15.4957 8.52525Z" fill="#1380ED"/>
</g>
</svg>
