<svg width="24" height="25" viewBox="0 0 24 25" fill="none" xmlns="http://www.w3.org/2000/svg">
<g id="search">
<path id="Vector" d="M18.031 17.3849L22.3137 21.6676L20.8995 23.0818L16.6168 18.7991C15.0769 20.0311 13.124 20.7681 11 20.7681C6.032 20.7681 2 16.7361 2 11.7681C2 6.80007 6.032 2.76807 11 2.76807C15.968 2.76807 20 6.80007 20 11.7681C20 13.8921 19.263 15.845 18.031 17.3849ZM16.0247 16.6429C17.2475 15.3827 18 13.6637 18 11.7681C18 7.90057 14.8675 4.76807 11 4.76807C7.1325 4.76807 4 7.90057 4 11.7681C4 15.6356 7.1325 18.7681 11 18.7681C12.8956 18.7681 14.6146 18.0156 15.8748 16.7928L16.0247 16.6429Z" fill="#1380ED"/>
</g>
</svg>
