<svg width="24" height="25" viewBox="0 0 24 25" fill="none" xmlns="http://www.w3.org/2000/svg">
<g id="shield-flash">
<path id="Vector" d="M3.78307 3.59405L12 1.76807L20.2169 3.59405C20.6745 3.69573 21 4.10154 21 4.57024V14.557C21 16.5631 19.9974 18.4365 18.3282 19.5493L12 23.7681L5.6718 19.5493C4.00261 18.4365 3 16.5631 3 14.557V4.57024C3 4.10154 3.32553 3.69573 3.78307 3.59405ZM5 5.37241V14.557C5 15.8944 5.6684 17.1433 6.7812 17.8852L12 21.3644L17.2188 17.8852C18.3316 17.1433 19 15.8944 19 14.557V5.37241L12 3.81686L5 5.37241ZM13 10.7681H16L11 17.7681V12.7681H8L13 5.76807V10.7681Z" fill="#1380ED"/>
</g>
</svg>
