<svg width="25" height="25" viewBox="0 0 25 25" fill="none" xmlns="http://www.w3.org/2000/svg">
<g id="tree">
<path id="Vector" d="M6.66699 7.76807C6.66699 4.45436 9.35328 1.76807 12.667 1.76807C15.9807 1.76807 18.667 4.45436 18.667 7.76807C18.667 8.03021 18.6501 8.28877 18.6174 8.54264C20.437 9.5722 21.667 11.5256 21.667 13.7681C21.667 17.0818 18.9807 19.7681 15.667 19.7681H13.667V22.7681H11.667V19.7681H9.16699C6.12942 19.7681 3.66699 17.3057 3.66699 14.2681C3.66699 12.0544 4.97411 10.1477 6.85797 9.27511C6.73334 8.79358 6.66699 8.28846 6.66699 7.76807ZM7.67663 11.1C6.48875 11.6599 5.66699 12.8689 5.66699 14.2681C5.66699 16.2011 7.23399 17.7681 9.16699 17.7681H15.667C17.8761 17.7681 19.667 15.9772 19.667 13.7681C19.667 12.0737 18.6131 10.6229 17.1214 10.0404L16.2799 9.71179C16.4577 9.07144 16.667 8.4399 16.667 7.76807C16.667 5.55893 14.8761 3.76807 12.667 3.76807C10.4579 3.76807 8.66699 5.55893 8.66699 7.76807C8.66699 9.0759 9.29359 10.2371 10.2672 10.9686L9.06583 12.5676C8.52466 12.161 8.05415 11.6644 7.67663 11.1Z" fill="#1380ED"/>
</g>
</svg>
