<svg width="20" height="20" viewBox="0 0 20 20" fill="none" xmlns="http://www.w3.org/2000/svg">
<g id="instagram-fill">
<path id="Vector" d="M10.8572 1.66699C11.7951 1.66854 12.2703 1.67351 12.681 1.68573L12.8427 1.69102C13.0296 1.69766 13.2139 1.70599 13.4362 1.71641C14.3229 1.75738 14.9278 1.89766 15.4591 2.10391C16.0083 2.31572 16.4722 2.60183 16.9354 3.06503C17.3979 3.52822 17.6841 3.99349 17.8966 4.54141C18.1021 5.07197 18.2424 5.67753 18.2841 6.56433C18.294 6.78655 18.302 6.97088 18.3086 7.15775L18.3138 7.31949C18.326 7.73011 18.3316 8.20543 18.3333 9.1433L18.334 9.76463C18.3341 9.84055 18.3341 9.91888 18.3341 9.99972L18.334 10.2348L18.3335 10.8562C18.3319 11.794 18.327 12.2694 18.3147 12.68L18.3094 12.8417C18.3028 13.0286 18.2945 13.213 18.2841 13.4351C18.2431 14.322 18.1021 14.9268 17.8966 15.458C17.6847 16.0074 17.3979 16.4713 16.9354 16.9345C16.4722 17.397 16.0062 17.6831 15.4591 17.8956C14.9278 18.1011 14.3229 18.2414 13.4362 18.2831C13.2139 18.293 13.0296 18.3011 12.8427 18.3076L12.681 18.3128C12.2703 18.3251 11.7951 18.3306 10.8572 18.3324L10.2358 18.333C10.1599 18.333 10.0816 18.333 10.0007 18.333H9.76565L9.14424 18.3325C8.2064 18.331 7.73109 18.326 7.32046 18.3137L7.15873 18.3085C6.97185 18.3018 6.78752 18.2935 6.5653 18.2831C5.67849 18.2421 5.07433 18.1011 4.54239 17.8956C3.99377 17.6838 3.52919 17.397 3.06599 16.9345C2.6028 16.4713 2.31739 16.0053 2.10489 15.458C1.89864 14.9268 1.75905 14.322 1.71739 13.4351C1.70749 13.213 1.69941 13.0286 1.69287 12.8417L1.68763 12.68C1.67544 12.2694 1.66988 11.794 1.66808 10.8562L1.66797 9.1433C1.66952 8.20543 1.67448 7.73011 1.6867 7.31949L1.69199 7.15775C1.69864 6.97088 1.70697 6.78655 1.71739 6.56433C1.75835 5.67683 1.89864 5.07266 2.10489 4.54141C2.31669 3.9928 2.6028 3.52822 3.06599 3.06503C3.52919 2.60183 3.99447 2.31641 4.54239 2.10391C5.07364 1.89766 5.6778 1.75808 6.5653 1.71641C6.78752 1.70652 6.97185 1.69844 7.15873 1.6919L7.32046 1.68666C7.73109 1.67446 8.2064 1.6689 9.14424 1.6671L10.8572 1.66699ZM10.0007 5.83308C7.6983 5.83308 5.83405 7.69935 5.83405 9.99972C5.83405 12.3021 7.70033 14.1664 10.0007 14.1664C12.3032 14.1664 14.1674 12.3001 14.1674 9.99972C14.1674 7.69732 12.3011 5.83308 10.0007 5.83308ZM10.0007 7.49974C11.3815 7.49974 12.5007 8.61863 12.5007 9.99972C12.5007 11.3805 11.3818 12.4997 10.0007 12.4997C8.61999 12.4997 7.50072 11.3809 7.50072 9.99972C7.50072 8.61897 8.61957 7.49974 10.0007 7.49974ZM14.3757 4.58308C13.8013 4.58308 13.3341 5.04967 13.3341 5.62403C13.3341 6.19841 13.8007 6.66572 14.3757 6.66572C14.9501 6.66572 15.4174 6.19913 15.4174 5.62403C15.4174 5.04967 14.9493 4.58236 14.3757 4.58308Z" fill="#303030" fill-opacity="0.4"/>
</g>
</svg>
