<svg width="20" height="20" viewBox="0 0 20 20" fill="none" xmlns="http://www.w3.org/2000/svg">
<g id="telegram-fill">
<path id="Vector" d="M18.3337 10.0003C18.3337 14.6027 14.6027 18.3337 10.0003 18.3337C5.39795 18.3337 1.66699 14.6027 1.66699 10.0003C1.66699 5.39795 5.39795 1.66699 10.0003 1.66699C14.6027 1.66699 18.3337 5.39795 18.3337 10.0003ZM10.299 7.81904C9.48841 8.15618 7.86849 8.85399 5.43916 9.91241C5.04467 10.0692 4.83803 10.2227 4.81921 10.3727C4.78742 10.6264 5.105 10.7262 5.53748 10.8622C5.5963 10.8807 5.65726 10.8999 5.71974 10.9202C6.14523 11.0585 6.71758 11.2203 7.01513 11.2267C7.28503 11.2326 7.58627 11.1213 7.91884 10.8929C10.1887 9.36074 11.3603 8.58633 11.4339 8.56966C11.4858 8.55783 11.5577 8.54308 11.6064 8.58633C11.6552 8.62966 11.6503 8.71166 11.6452 8.73366C11.6137 8.86783 10.3671 10.0268 9.72199 10.6266C9.52958 10.8054 9.34208 10.9881 9.15308 11.1702C8.75783 11.5512 8.46141 11.837 9.16949 12.3037C9.88733 12.7767 10.6106 13.2488 11.3107 13.7479C11.6559 13.9941 11.9662 14.2152 12.3493 14.18C12.5721 14.1595 12.8021 13.9501 12.9188 13.3256C13.1949 11.8497 13.7376 8.65208 13.863 7.33435C13.874 7.21891 13.8602 7.07116 13.8491 7.0063C13.838 6.94144 13.8147 6.84903 13.7305 6.78062C13.6306 6.6996 13.4765 6.68252 13.4076 6.68373C13.0941 6.68926 12.6132 6.85647 10.299 7.81904Z" fill="#303030" fill-opacity="0.4"/>
</g>
</svg>
