<svg width="16" height="16" viewBox="0 0 16 16" fill="none" xmlns="http://www.w3.org/2000/svg">
<g id="threads">
<path id="Vector" d="M8.12266 0.939941H8.12179C6.0604 0.954221 4.46723 1.64867 3.39612 3.01029C2.4442 4.22041 1.9568 5.90941 1.94043 8.00437V8.0053C1.9568 10.1004 2.44423 11.7796 3.39612 12.9896C4.46728 14.3512 6.0687 15.0457 8.13006 15.06H8.13086C9.96299 15.0472 11.2623 14.5668 12.3327 13.4974C13.7359 12.0954 13.6942 10.3364 13.2307 9.2553C12.8779 8.4327 12.1809 7.77437 11.2471 7.36497C11.1264 5.37547 10.0068 4.21435 8.16672 4.2026C7.07972 4.19589 6.09894 4.68235 5.49822 5.59386L6.60191 6.35097C6.95719 5.81195 7.51959 5.55194 8.15839 5.55784C9.08326 5.56374 9.69112 6.07402 9.86172 6.96923C9.34699 6.8887 8.79379 6.8653 8.20539 6.89903C6.44594 7.00037 5.29359 8.0405 5.37043 9.48277C5.4508 10.9906 6.91166 11.8122 8.29872 11.7365C9.96026 11.6454 10.9476 10.4193 11.1818 8.85557C11.5665 9.10483 11.8504 9.42277 12.0112 9.79777C12.3043 10.4813 12.3229 11.6086 11.4007 12.53C10.5895 13.3404 9.61439 13.6936 8.12639 13.7046C6.47651 13.6924 5.23831 13.1638 4.43468 12.1422C3.68014 11.183 3.28594 9.79197 3.27117 7.99997C3.28594 6.20791 3.68014 4.81683 4.43468 3.85765C5.23831 2.83605 6.47648 2.30754 8.12632 2.29519C9.78826 2.30763 11.0489 2.83875 11.8839 3.86608C12.3445 4.43273 12.633 5.1101 12.8256 5.80922L14.1187 5.46421C13.8769 4.57261 13.4946 3.72231 12.909 3.00187C11.8069 1.64595 10.1881 0.954275 8.12266 0.939941ZM8.28059 8.25197C8.86992 8.21797 9.41626 8.25543 9.90172 8.35617C9.80792 9.40757 9.37292 10.3202 8.22706 10.3832C7.48579 10.4249 6.73572 10.094 6.69926 9.40917C6.67212 8.90003 7.04872 8.32297 8.28059 8.25197Z" fill="#303030" fill-opacity="0.4"/>
</g>
</svg>
