<svg width="20" height="20" viewBox="0 0 20 20" fill="none" xmlns="http://www.w3.org/2000/svg">
<g id="whatsapp-fill">
<path id="Vector" d="M10.0013 1.66699C14.6037 1.66699 18.3347 5.39795 18.3347 10.0003C18.3347 14.6027 14.6037 18.3337 10.0013 18.3337C8.47307 18.3337 7.04091 17.9223 5.80954 17.2042L1.67145 18.3337L2.79809 14.1932C2.0796 12.9617 1.66797 11.5291 1.66797 10.0003C1.66797 5.39795 5.39893 1.66699 10.0013 1.66699ZM6.99409 6.0906C6.88626 6.09818 6.78054 6.12451 6.68429 6.17375C6.61209 6.21069 6.54505 6.26408 6.43973 6.36354C6.34027 6.45745 6.28263 6.53947 6.22189 6.61854C5.91381 7.01966 5.74823 7.51203 5.7513 8.01781C5.75298 8.42666 5.85918 8.82399 6.02689 9.19499C6.367 9.94733 6.92789 10.7427 7.66877 11.4802C7.84674 11.6574 8.02109 11.8365 8.2091 12.002C9.12865 12.8117 10.2245 13.3955 11.4094 13.7072C11.4094 13.7072 11.8761 13.7788 11.8829 13.7792C12.0375 13.7876 12.1918 13.7764 12.3466 13.7685C12.5893 13.756 12.8263 13.6903 13.0408 13.5761C13.1787 13.5027 13.244 13.4662 13.3597 13.3932C13.3597 13.3932 13.3952 13.3692 13.4637 13.3182C13.5762 13.2343 13.6457 13.1753 13.7393 13.0782C13.8083 13.0065 13.8677 12.9218 13.9135 12.8264C13.9787 12.6904 14.0442 12.4308 14.0703 12.2152C14.0902 12.0506 14.0842 11.9606 14.0821 11.9048C14.0785 11.8152 14.0044 11.7229 13.9232 11.6837L13.4387 11.4659C13.4387 11.4659 12.7141 11.1506 12.2709 10.9484C12.2247 10.9273 12.1742 10.9176 12.1235 10.9145C12.0123 10.9077 11.8877 10.9367 11.8085 11.0202C11.8043 11.0185 11.7492 11.0662 11.1462 11.7966C11.113 11.8363 11.0351 11.9227 10.9003 11.9147C10.88 11.9132 10.8597 11.9103 10.84 11.9052C10.7854 11.8907 10.7322 11.8717 10.6802 11.8497C10.5772 11.806 10.541 11.7894 10.4706 11.7591C9.98949 11.5489 9.54799 11.2677 9.15774 10.9237C9.05307 10.8315 8.95574 10.7322 8.8554 10.635C8.50524 10.2956 8.21856 9.93458 8.00529 9.57849C7.99365 9.55908 7.97571 9.53099 7.95639 9.49958C7.92149 9.44283 7.88301 9.37533 7.87094 9.32899C7.83997 9.20641 7.92214 9.10791 7.92214 9.10791C7.92214 9.10791 8.12498 8.88616 8.21922 8.76558C8.30989 8.64949 8.38815 8.53599 8.43799 8.45508C8.53615 8.29727 8.56724 8.13418 8.51565 8.00835C8.28185 7.43837 8.04064 6.87146 7.79204 6.30778C7.74297 6.19653 7.59703 6.11571 7.46431 6.10038C7.41936 6.09519 7.37444 6.08998 7.32931 6.08701C7.21759 6.08156 7.10565 6.08276 6.99409 6.0906Z" fill="#303030" fill-opacity="0.4"/>
</g>
</svg>
