<svg width="16" height="16" viewBox="0 0 16 16" fill="none" xmlns="http://www.w3.org/2000/svg">
<g id="youtube-fill">
<path id="Vector" d="M8.16227 2.6665C8.51834 2.66846 9.40921 2.67708 10.3557 2.71499L10.6913 2.72962C11.6443 2.77474 12.5965 2.85182 13.0688 2.9835C13.6987 3.16047 14.1939 3.67684 14.3612 4.33138C14.6277 5.37078 14.661 7.39944 14.6651 7.89037L14.6657 7.9921V7.99924C14.6657 7.99924 14.6657 8.0017 14.6657 8.00644L14.6651 8.10817C14.661 8.5991 14.6277 10.6278 14.3612 11.6672C14.1915 12.3241 13.6964 12.8405 13.0688 13.015C12.5965 13.1467 11.6443 13.2238 10.6913 13.2689L10.3557 13.2835C9.40921 13.3214 8.51834 13.33 8.16227 13.332L8.00601 13.3326H7.99907C7.99907 13.3326 7.99674 13.3326 7.99214 13.3326L7.83601 13.332C7.08241 13.3279 3.93149 13.2938 2.92935 13.015C2.29941 12.838 1.80429 12.3217 1.63692 11.6672C1.37047 10.6278 1.33717 8.5991 1.33301 8.10817V7.89037C1.33717 7.39944 1.37047 5.37078 1.63692 4.33138C1.80661 3.67441 2.30173 3.15805 2.92935 2.9835C3.93149 2.70466 7.08241 2.67065 7.83601 2.6665H8.16227ZM6.66575 5.66593V10.3326L10.6657 7.99924L6.66575 5.66593Z" fill="#303030" fill-opacity="0.4"/>
</g>
</svg>
